<svg width="456" height="456" viewBox="0 0 456 456" fill="none" xmlns="http://www.w3.org/2000/svg">
<circle cx="228" cy="228" r="226.5" fill="white" stroke="black" stroke-width="3"/>
<path d="M227.5 348.453V274.811" stroke="black" stroke-width="2"/>
<path d="M137.777 253.662V373L194.256 313.331L137.777 253.662Z" fill="#393E46"/>
<path d="M316.865 373V253.662L260.386 313.331L316.865 373Z" fill="#393E46"/>
<path d="M387.643 177.754L352.254 215.141V335.612L316.865 373M316.865 373V253.662L260.386 313.331M316.865 373L260.386 313.331M260.386 313.331L227.5 348.075V348.453L194.256 313.331M67 177.754L102.389 215.141V335.612L137.777 373M137.777 373V253.662L194.256 313.331M137.777 373L194.256 313.331" stroke="black" stroke-width="2"/>
<path d="M67.715 106L227.857 275.188L388 106" stroke="black" stroke-width="2"/>
<path d="M387.643 106V178.132M67.715 178.132V106" stroke="black" stroke-width="2"/>
<path d="M227.857 274.433V223.072M227.857 223.072L338.67 106M227.857 223.072L117.045 106" stroke="black" stroke-width="2"/>
<path d="M67.715 106H116.687M388 106H337.955" stroke="black" stroke-width="2"/>
<path d="M352.254 215.141L387.643 177.754V106L227.857 274.81V347.32L316.865 253.284V373L352.254 335.612V215.141Z" fill="#00ADB5" stroke="black" stroke-width="3"/>
<path d="M67.715 106L227.858 274.433V348.453L137.42 252.907V372.245L102.746 335.612V215.141L67.715 178.132V106Z" stroke="black" stroke-width="3"/>
<path d="M227.857 223.072V273.678L387.643 106H338.313L227.857 223.072Z" fill="#D9D9D9" stroke="black"/>
</svg>
