<svg width="570" height="576" viewBox="0 0 570 576" fill="none" xmlns="http://www.w3.org/2000/svg">
<g filter="url(#filter0_d_18_313)">
<path d="M282.741 142.866C282.741 220.327 220.498 283.123 143.716 283.123C66.933 283.123 4.68692 220.327 4.68692 142.866C4.68692 65.4011 66.933 2.60771 143.716 2.60771C220.498 2.60771 282.741 65.4011 282.741 142.866Z" fill="#222831"/>
<path d="M143.716 283.808C66.6805 283.808 4.01086 220.579 4.01086 142.868C4.01086 65.1518 66.6805 1.92565 143.716 1.92565C172.045 1.92565 199.323 10.4336 222.6 26.5264C245.333 42.2494 262.818 64.1191 273.165 89.7772C273.307 90.1251 273.144 90.525 272.796 90.6647C272.449 90.8071 272.055 90.64 271.914 90.2894C250.595 37.4421 200.276 3.29525 143.716 3.29525C67.4271 3.29525 5.36569 65.9051 5.36569 142.868C5.36569 219.826 67.4271 282.441 143.716 282.441C171.727 282.441 198.704 274.043 221.734 258.15C222.04 257.937 222.464 258.013 222.676 258.325C222.887 258.638 222.809 259.062 222.499 259.276C199.244 275.325 172.001 283.808 143.716 283.808Z" fill="#222831"/>
<path d="M268.897 142.912C268.897 212.759 212.771 269.384 143.536 269.384C74.299 269.384 18.1754 212.759 18.1754 142.912C18.1754 73.0653 74.299 16.4407 143.536 16.4407C212.771 16.4407 268.897 73.0653 268.897 142.912Z" fill="white"/>
<path d="M243.291 211.288C243.161 211.288 243.028 211.247 242.911 211.167C242.602 210.959 242.523 210.532 242.732 210.22C246.335 204.837 249.525 199.129 252.213 193.245C252.371 192.902 252.775 192.755 253.112 192.913C253.451 193.07 253.598 193.475 253.443 193.82C250.725 199.767 247.5 205.544 243.853 210.984C243.723 211.181 243.511 211.288 243.291 211.288Z" fill="#222831"/>
<path d="M244.375 105.867C229.398 64.415 189.983 34.8152 143.716 34.8152C143.667 34.8152 143.618 34.8152 143.569 34.8152L143.716 140.795L244.375 105.867Z" fill="white"/>
<path d="M144.248 35.4973L144.392 139.836L243.5 105.451C228.128 63.7466 188.376 35.7219 144.248 35.4973ZM143.716 141.474C143.577 141.474 143.439 141.433 143.325 141.345C143.145 141.219 143.039 141.014 143.039 140.789L142.893 34.8152C142.893 34.6344 142.963 34.4618 143.091 34.3331C143.219 34.2044 143.39 34.1331 143.569 34.1331L143.716 34.1304C166.27 34.1304 187.866 41.0825 206.173 54.2361C224.085 67.1103 237.514 84.8795 245.01 105.634C245.072 105.804 245.062 105.993 244.986 106.16C244.907 106.325 244.768 106.453 244.592 106.514L143.935 141.436C143.862 141.463 143.792 141.474 143.716 141.474Z" fill="#222831"/>
<path d="M150.251 34.3386C150.251 37.9817 147.324 40.9318 143.716 40.9318C140.107 40.9318 137.18 37.9817 137.18 34.3386C137.18 30.6982 140.107 27.7481 143.716 27.7481C147.324 27.7481 150.251 30.6982 150.251 34.3386Z" fill="#222831"/>
<path d="M150.251 251.393C150.251 255.033 147.324 257.983 143.716 257.983C140.107 257.983 137.18 255.033 137.18 251.393C137.18 247.749 140.107 244.799 143.716 244.799C147.324 244.799 150.251 247.749 150.251 251.393Z" fill="#222831"/>
<path d="M36.1412 136.272C39.7522 136.272 42.6764 139.225 42.6764 142.866C42.6764 146.506 39.7522 149.456 36.1412 149.456C32.5328 149.456 29.6087 146.506 29.6087 142.866C29.6087 139.225 32.5328 136.272 36.1412 136.272Z" fill="#222831"/>
<path d="M251.29 136.272C254.896 136.272 257.825 139.225 257.825 142.866C257.825 146.506 254.896 149.456 251.29 149.456C247.679 149.456 244.757 146.506 244.757 142.866C244.757 139.225 247.679 136.272 251.29 136.272Z" fill="#222831"/>
<path d="M251.287 136.957C248.056 136.957 245.431 139.611 245.431 142.868C245.431 146.128 248.056 148.777 251.287 148.777C254.515 148.777 257.146 146.128 257.146 142.868C257.146 139.611 254.515 136.957 251.287 136.957ZM251.287 150.141C247.31 150.141 244.073 146.881 244.073 142.868C244.073 138.858 247.31 135.593 251.287 135.593C255.262 135.593 258.496 138.858 258.496 142.868C258.496 146.881 255.262 150.141 251.287 150.141Z" fill="#222831"/>
<path d="M92.9407 47.1252C93.8992 48.8015 93.3317 50.9491 91.6674 51.9187C90.003 52.8884 87.8771 52.3105 86.916 50.6341C85.9575 48.9549 86.5277 46.8101 88.1893 45.8405C89.8537 44.8708 91.9796 45.4488 92.9407 47.1252Z" fill="#222831"/>
<path d="M48.8152 194.091C50.4795 193.122 52.6055 193.697 53.5666 195.373C54.525 197.055 53.9549 199.2 52.2932 200.167C50.6289 201.137 48.503 200.561 47.5418 198.885C46.5807 197.206 47.1508 195.058 48.8152 194.091Z" fill="#222831"/>
<path d="M235.138 85.5643C236.8 84.5974 238.928 85.1726 239.887 86.8517C240.85 88.5281 240.28 90.6756 238.616 91.6426C236.954 92.6123 234.826 92.037 233.865 90.3579C232.903 88.6788 233.474 86.534 235.138 85.5643Z" fill="#222831"/>
<path d="M52.2932 85.5643C53.9549 86.534 54.525 88.6788 53.5666 90.3579C52.6055 92.037 50.4795 92.6123 48.8152 91.6426C47.1508 90.6756 46.5807 88.5281 47.5418 86.8517C48.503 85.1726 50.6289 84.5974 52.2932 85.5643Z" fill="#222831"/>
<path d="M238.616 194.091C240.28 195.058 240.85 197.206 239.887 198.885C238.928 200.561 236.8 201.137 235.138 200.167C233.474 199.2 232.903 197.055 233.865 195.373C234.826 193.697 236.952 193.122 238.616 194.091Z" fill="white"/>
<path d="M86.916 235.097C87.8771 233.421 90.003 232.845 91.6674 233.815C93.3317 234.782 93.8992 236.93 92.9407 238.609C91.9796 240.282 89.851 240.858 88.1893 239.891C86.5277 238.924 85.9548 236.776 86.916 235.097Z" fill="#222831"/>
<path d="M194.49 47.1252C195.451 45.4488 197.577 44.8708 199.242 45.8405C200.903 46.8101 201.474 48.9549 200.512 50.6341C199.554 52.3105 197.425 52.8884 195.764 51.9187C194.102 50.9491 193.532 48.8015 194.49 47.1252Z" fill="#222831"/>
<path d="M194.49 236.738C195.449 235.059 197.577 234.484 199.239 235.453C200.903 236.42 201.474 238.568 200.512 240.244C199.551 241.923 197.425 242.498 195.764 241.526C194.099 240.559 193.529 238.412 194.49 236.738Z" fill="#222831"/>
<path d="M175.623 119.621C153.053 144.268 144.218 148.736 141.06 145.797C137.908 142.852 141.628 133.615 164.198 108.973C180.334 91.3605 203.344 72.1422 215.158 62.6126C216.958 61.1608 218.709 62.7934 217.414 64.7218C208.932 77.3522 191.756 102.008 175.623 119.621Z" fill="#222831"/>
<path d="M129.896 110.699C144.563 126.074 145.459 133.44 141.535 137.25C137.609 141.063 130.349 139.874 115.682 124.499C105.197 113.512 95.7726 96.2992 91.2465 87.3777C90.5569 86.0135 92.7344 83.9016 94.0566 84.6522C102.72 89.5498 119.41 99.7123 129.896 110.699Z" fill="#222831"/>
<path d="M151.329 129.186C158 132.961 160.375 141.482 156.631 148.212C152.89 154.943 144.446 157.337 137.772 153.562C131.101 149.788 128.726 141.269 132.47 134.536C136.214 127.805 144.655 125.409 151.329 129.186Z" fill="#222831"/>
<path d="M144.568 128.079C143.371 128.079 142.165 128.244 140.981 128.581C137.593 129.542 134.78 131.777 133.059 134.875C129.505 141.263 131.766 149.385 138.103 152.97C144.44 156.556 152.485 154.272 156.039 147.878C157.761 144.783 158.184 141.197 157.231 137.779C156.278 134.36 154.065 131.523 150.995 129.786C148.999 128.655 146.797 128.079 144.568 128.079ZM144.527 156.041C142.07 156.041 139.643 155.406 137.441 154.159C130.452 150.207 127.957 141.255 131.878 134.204C133.776 130.788 136.879 128.329 140.615 127.266C144.351 126.206 148.271 126.68 151.657 128.592C155.043 130.509 157.484 133.64 158.537 137.406C159.585 141.178 159.118 145.134 157.22 148.547C155.323 151.962 152.219 154.428 148.483 155.485C147.177 155.858 145.847 156.041 144.527 156.041Z" fill="white"/>
<path d="M477.155 567.17H444.406V161.018L476.829 158.709L477.155 567.17Z" fill="#222831"/>
<path d="M445.087 566.485H476.482L476.153 159.438L445.087 161.651V566.485ZM477.158 567.852H444.406C444.034 567.852 443.73 567.545 443.73 567.167V161.018C443.73 160.657 444.004 160.361 444.357 160.333L476.783 158.027C476.971 158.016 477.155 158.076 477.291 158.208C477.429 158.337 477.508 158.517 477.508 158.706L477.837 567.167C477.837 567.348 477.761 567.523 477.638 567.652C477.511 567.781 477.337 567.852 477.158 567.852Z" fill="#222831"/>
<path d="M564.972 567.17H477.158C476.973 567.17 476.827 566.962 476.827 566.707V159.186C476.827 158.926 476.981 158.717 477.169 158.726L564.985 163.404C565.159 163.41 565.303 163.615 565.303 163.862V566.707C565.303 566.962 565.156 567.17 564.972 567.17Z" fill="white"/>
<mask id="mask0_18_313" style="mask-type:luminance" maskUnits="userSpaceOnUse" x="475" y="157" width="91" height="411">
<path d="M475.947 157.778H565.957V568H475.947V157.778Z" fill="white"/>
</mask>
<g mask="url(#mask0_18_313)">
<path d="M477.505 566.485H564.624V164.067L477.505 159.43V566.485ZM564.972 567.852H477.155C476.593 567.852 476.153 567.348 476.153 566.707V159.188C476.153 158.846 476.281 158.526 476.506 158.312C476.699 158.126 476.943 158.024 477.204 158.043L565.021 162.722C565.566 162.752 565.976 163.24 565.976 163.864V566.707C565.976 567.348 565.537 567.852 564.972 567.852Z" fill="#222831"/>
</g>
<path d="M536.146 354.929C535.774 354.929 535.47 354.625 535.47 354.247V189.314C535.47 188.936 535.774 188.629 536.146 188.629C536.521 188.629 536.825 188.936 536.825 189.314V354.247C536.825 354.625 536.521 354.929 536.146 354.929Z" fill="#222831"/>
<path d="M508.368 296.159C507.996 296.159 507.694 295.852 507.694 295.477V246.818C507.694 246.44 507.996 246.133 508.368 246.133C508.745 246.133 509.047 246.44 509.047 246.818V295.477C509.047 295.852 508.745 296.159 508.368 296.159Z" fill="#222831"/>
<path d="M508.368 463.004C507.996 463.004 507.694 462.697 507.694 462.322V378.354C507.694 377.979 507.996 377.675 508.368 377.675C508.745 377.675 509.047 377.979 509.047 378.354V462.322C509.047 462.697 508.745 463.004 508.368 463.004Z" fill="#222831"/>
<path d="M366.716 567.214H334.116V263.998L366.54 253.666L366.716 567.214Z" fill="#222831"/>
<path d="M334.795 566.532H366.04L365.861 254.6L334.795 264.5V566.532ZM366.716 567.899H334.116C333.744 567.899 333.44 567.592 333.44 567.214V263.998C333.44 263.703 333.633 263.44 333.915 263.349L366.336 253.017C366.543 252.948 366.765 252.99 366.939 253.116C367.113 253.244 367.216 253.45 367.216 253.666L367.395 567.214C367.395 567.397 367.325 567.573 367.197 567.699C367.069 567.827 366.898 567.899 366.716 567.899Z" fill="#222831"/>
<path d="M454.685 567.214H366.868C366.689 567.214 366.54 567.058 366.54 566.863V254.033C366.54 253.83 366.697 253.669 366.882 253.68L454.699 257.271C454.872 257.279 455.014 257.435 455.014 257.624V566.863C455.014 567.058 454.87 567.214 454.685 567.214Z" fill="white"/>
<path d="M367.216 566.532H454.332V257.942L367.216 254.378V566.532ZM454.682 567.899H366.866C366.312 567.899 365.858 567.433 365.858 566.863V254.033C365.858 253.751 365.978 253.477 366.179 253.28C366.377 253.088 366.64 252.99 366.906 252.998L454.723 256.589C455.266 256.614 455.69 257.065 455.69 257.627V566.863C455.69 567.433 455.236 567.899 454.682 567.899Z" fill="#222831"/>
<path d="M410.796 417.465C410.421 417.465 410.12 417.158 410.12 416.783V277.892C410.12 277.516 410.421 277.21 410.796 277.21C411.17 277.21 411.472 277.516 411.472 277.892V416.783C411.472 417.158 411.17 417.465 410.796 417.465Z" fill="#222831"/>
<path d="M387.612 323.896C387.237 323.896 386.936 323.59 386.936 323.212V299.537C386.936 299.161 387.237 298.855 387.612 298.855C387.986 298.855 388.29 299.161 388.29 299.537V323.212C388.29 323.59 387.986 323.896 387.612 323.896Z" fill="#222831"/>
<path d="M387.612 480.976C387.237 480.976 386.936 480.669 386.936 480.291V362.371C386.936 361.993 387.237 361.686 387.612 361.686C387.986 361.686 388.29 361.993 388.29 362.371V480.291C388.29 480.669 387.986 480.976 387.612 480.976Z" fill="#222831"/>
<path d="M433.98 370.57C433.605 370.57 433.304 370.263 433.304 369.885V346.21C433.304 345.835 433.605 345.528 433.98 345.528C434.352 345.528 434.656 345.835 434.656 346.21V369.885C434.656 370.263 434.352 370.57 433.98 370.57Z" fill="#222831"/>
<path d="M257.054 567.214H224.633V392.943L257.054 385.772V567.214Z" fill="#222831"/>
<path d="M225.309 566.532H256.375V386.621L225.309 393.491V566.532ZM257.054 567.899H224.633C224.259 567.899 223.954 567.592 223.954 567.214V392.943C223.954 392.623 224.174 392.346 224.487 392.278L256.91 385.107C257.114 385.063 257.317 385.112 257.48 385.241C257.641 385.367 257.733 385.567 257.733 385.772V567.214C257.733 567.592 257.429 567.899 257.054 567.899Z" fill="#222831"/>
<path d="M345.528 567.214H257.054V386.153C257.054 385.945 257.225 385.775 257.431 385.786L345.528 388.761V567.214Z" fill="white"/>
<path d="M257.733 566.532H344.849V389.424L257.733 386.479V566.532ZM345.528 567.899H257.054C256.679 567.899 256.375 567.592 256.375 567.214V386.153C256.375 385.868 256.495 385.594 256.696 385.394C256.899 385.2 257.173 385.098 257.456 385.101L345.549 388.079C345.913 388.092 346.207 388.394 346.207 388.761V567.214C346.207 567.592 345.902 567.899 345.528 567.899Z" fill="#222831"/>
<path d="M280.572 516.235C280.2 516.235 279.896 515.928 279.896 515.55V407.453C279.896 407.075 280.2 406.771 280.572 406.771C280.947 406.771 281.251 407.075 281.251 407.453V515.55C281.251 515.928 280.947 516.235 280.572 516.235Z" fill="#222831"/>
<path d="M326.94 528.876C326.566 528.876 326.267 528.572 326.267 528.194V420.097C326.267 419.719 326.566 419.412 326.94 419.412C327.315 419.412 327.619 419.719 327.619 420.097V528.194C327.619 528.572 327.315 528.876 326.94 528.876Z" fill="#222831"/>
<path d="M303.759 486.523C303.382 486.523 303.08 486.219 303.08 485.843V463.716C303.08 463.341 303.382 463.034 303.759 463.034C304.134 463.034 304.432 463.341 304.432 463.716V485.843C304.432 486.219 304.134 486.523 303.759 486.523Z" fill="#222831"/>
<path d="M148.019 567.214H115.289V480.781L147.712 474.333L148.019 567.214Z" fill="#222831"/>
<path d="M115.965 566.532H147.34L147.036 475.163L115.965 481.346V566.532ZM148.019 567.899H115.289C114.914 567.899 114.613 567.592 114.613 567.214V480.781C114.613 480.458 114.841 480.176 115.156 480.116L147.579 473.662C147.777 473.626 147.984 473.676 148.138 473.805C148.296 473.936 148.388 474.128 148.388 474.33L148.698 567.214C148.698 567.395 148.627 567.567 148.5 567.699C148.372 567.827 148.198 567.899 148.019 567.899Z" fill="#222831"/>
<path d="M235.874 567.214H148.019C147.851 567.214 147.712 567.077 147.712 566.907V474.648C147.712 474.476 147.853 474.336 148.024 474.339L235.879 475.785C236.047 475.788 236.183 475.927 236.183 476.097V566.907C236.183 567.077 236.045 567.214 235.874 567.214Z" fill="white"/>
<path d="M148.388 566.532H235.507V476.461L148.388 475.026V566.532ZM235.876 567.899H148.019C147.476 567.899 147.033 567.452 147.033 566.904V474.648C147.033 474.38 147.139 474.13 147.327 473.941C147.519 473.752 147.78 473.654 148.035 473.657L235.893 475.1C236.425 475.111 236.859 475.555 236.859 476.097V566.904C236.859 567.452 236.419 567.899 235.876 567.899Z" fill="#222831"/>
<path d="M209.445 545.947C209.07 545.947 208.769 545.64 208.769 545.262V490.264C208.769 489.889 209.07 489.585 209.445 489.585C209.82 489.585 210.121 489.889 210.121 490.264V545.262C210.121 545.64 209.82 545.947 209.445 545.947Z" fill="#222831"/>
<path d="M181.664 526.351C181.292 526.351 180.988 526.046 180.988 525.668V509.439C180.988 509.066 181.292 508.759 181.664 508.759C182.039 508.759 182.34 509.066 182.34 509.439V525.668C182.34 526.046 182.039 526.351 181.664 526.351Z" fill="#222831"/>
<path d="M38.9377 567.214H6.20737V521.949L38.6282 516.432L38.9377 567.214Z" fill="#222831"/>
<path d="M6.88342 566.532H38.2562L37.9576 517.24L6.88342 522.529V566.532ZM38.9377 567.899H6.20737C5.83268 567.899 5.52859 567.592 5.52859 567.214V521.949C5.52859 521.62 5.76752 521.335 6.09333 521.28L38.5169 515.758C38.7124 515.725 38.9106 515.78 39.0626 515.909C39.2147 516.037 39.3043 516.229 39.3043 516.426L39.6138 567.214C39.6165 567.395 39.5459 567.567 39.4183 567.699C39.2907 567.827 39.1169 567.899 38.9377 567.899Z" fill="#222831"/>
<path d="M126.792 567.214H38.9377C38.7666 567.214 38.6282 567.137 38.6282 567.044V516.605C38.6282 516.509 38.7694 516.432 38.9431 516.437L126.798 517.224C126.966 517.226 127.102 517.3 127.102 517.393V567.044C127.102 567.137 126.963 567.214 126.792 567.214Z" fill="white"/>
<path d="M39.3042 566.532H126.423V517.906L39.3042 517.119V566.532ZM126.792 567.899H38.9377C38.3757 567.899 37.9521 567.532 37.9521 567.044V516.604C37.9521 516.393 38.0363 516.191 38.191 516.037C38.3757 515.851 38.6173 515.742 38.9486 515.753L126.803 516.541C127.36 516.547 127.778 516.911 127.778 517.393V567.044C127.778 567.532 127.354 567.899 126.792 567.899Z" fill="#222831"/>
<path d="M100.364 555.896C99.9891 555.896 99.685 555.589 99.685 555.213V525.143C99.685 524.765 99.9891 524.458 100.364 524.458C100.736 524.458 101.04 524.765 101.04 525.143V555.213C101.04 555.589 100.736 555.896 100.364 555.896Z" fill="#222831"/>
<path d="M72.583 545.182C72.2084 545.182 71.907 544.876 71.907 544.498V535.625C71.907 535.247 72.2084 534.946 72.583 534.946C72.9577 534.946 73.2591 535.247 73.2591 535.625V544.498C73.2591 544.876 72.9577 545.182 72.583 545.182Z" fill="#222831"/>
<path d="M321.211 338.51C319.333 337.157 305.084 309.779 305.084 309.779L289.092 326.132L315.325 348.883L321.211 338.51Z" fill="white"/>
<path d="M290.083 326.091L315.146 347.826L320.381 338.603C317.671 335.226 307.864 316.575 304.916 310.924L290.083 326.091ZM315.325 349.563C315.168 349.563 315.01 349.508 314.883 349.401L288.652 326.649C288.508 326.526 288.424 326.348 288.416 326.162C288.405 325.973 288.481 325.786 288.609 325.652L304.603 309.299C304.755 309.146 304.967 309.075 305.184 309.105C305.396 309.135 305.583 309.269 305.684 309.464C311.139 319.944 320.286 336.949 321.608 337.954C321.879 338.162 321.972 338.551 321.801 338.847L315.914 349.22C315.814 349.396 315.64 349.519 315.442 349.555C315.401 349.56 315.366 349.563 315.325 349.563Z" fill="#222831"/>
<path d="M246.593 354.271L228.149 378.784L216.284 376.13L232.257 345.802L246.593 354.271Z" fill="white"/>
<path d="M217.3 375.656L227.872 378.023L245.594 354.471L232.523 346.752L217.3 375.656ZM228.149 379.466C228.1 379.466 228.052 379.464 228.005 379.45L216.138 376.798C215.931 376.752 215.758 376.609 215.668 376.418C215.578 376.223 215.587 375.999 215.687 375.812L231.657 345.484C231.744 345.317 231.893 345.196 232.073 345.147C232.249 345.095 232.439 345.12 232.599 345.216L246.938 353.682C247.103 353.781 247.223 353.945 247.261 354.137C247.296 354.329 247.25 354.526 247.133 354.685L228.687 379.198C228.559 379.371 228.356 379.466 228.149 379.466Z" fill="#222831"/>
<path d="M359.386 203.788C359.386 203.788 261.29 192.541 231.785 217.777C198.484 246.259 297.351 337.275 297.351 337.275L314.307 320.231L279.179 257.682L370.097 231.629L359.386 203.788Z" fill="#222831"/>
<path d="M413.516 254.34C399.229 258.914 373.664 264.828 337.934 264.335C327.785 264.196 317.125 270.655 312.512 279.779C301.929 300.715 281.023 332.366 243.709 362.708L225.182 352.365L270.665 249.075C274.813 239.647 282.581 232.317 292.182 228.764L382.325 195.417C382.325 195.417 410.274 187.536 423.977 212.71C426.426 217.205 430.969 209.168 432.055 212.795C435.761 225.233 425.786 250.406 413.516 254.34Z" fill="#222831"/>
<path d="M226.05 352.072L243.639 361.889C283.029 329.75 303.314 296.474 311.91 279.472C316.612 270.162 327.543 263.533 337.942 263.653C373.015 264.146 398.282 258.501 413.307 253.688C425.221 249.878 434.93 224.811 431.401 212.992C431.311 212.68 431.202 212.543 431.134 212.518C430.841 212.406 429.905 213.003 429.283 213.403C428.058 214.183 426.679 215.074 425.294 214.72C424.526 214.518 423.88 213.953 423.38 213.038C410.106 188.646 382.776 195.998 382.505 196.074L292.415 229.402C283.037 232.876 275.335 240.145 271.281 249.355L226.05 352.072ZM243.707 363.39C243.595 363.39 243.481 363.363 243.381 363.305L224.85 352.962C224.544 352.792 224.416 352.411 224.56 352.088L270.04 248.799C274.246 239.255 282.226 231.72 291.948 228.126L382.086 194.776C382.426 194.68 410.766 187.027 424.572 212.378C424.887 212.959 425.232 213.293 425.628 213.397C426.445 213.605 427.567 212.888 428.558 212.249C429.649 211.551 430.681 210.888 431.607 211.239C432.12 211.43 432.487 211.888 432.696 212.6C436.456 225.192 426.456 250.913 413.717 254.989C398.594 259.835 373.167 265.502 337.923 265.02C337.82 265.017 337.716 265.017 337.613 265.017C327.815 265.017 317.552 271.315 313.112 280.094C304.443 297.244 283.955 330.854 244.13 363.24C244.011 363.338 243.859 363.39 243.707 363.39Z" fill="white"/>
<path d="M236.618 372.109C237.465 375.166 239.246 383.778 239.995 388.961C240.459 392.212 238.423 395.291 235.306 396.14C226.496 398.548 205.427 398.441 187.887 399.224C186.687 399.276 184.474 398.685 183.489 395.751C180.152 385.791 198.585 382.704 216.806 372.583C217.164 372.383 217.598 372.402 217.935 372.64C218.141 372.791 218.41 372.975 218.725 373.18C221.896 375.215 227.164 375.218 230.384 373.262L234.017 371.057C235.016 370.452 236.303 370.972 236.618 372.109Z" fill="white"/>
<path d="M217.327 373.131C217.262 373.131 217.194 373.144 217.134 373.18C211.579 376.264 205.986 378.71 201.053 380.866C189.994 385.695 182.004 389.188 184.13 395.532C185.129 398.509 187.412 398.561 187.857 398.539C192.356 398.34 197.143 398.197 201.772 398.057C215.597 397.644 228.652 397.249 235.132 395.483C237.937 394.716 239.74 391.954 239.322 389.062C238.608 384.085 236.824 375.396 235.966 372.293C235.874 371.956 235.638 371.693 235.32 371.561C235.008 371.438 234.657 371.465 234.367 371.643L230.729 373.846C227.267 375.949 221.717 375.906 218.361 373.755C218.036 373.544 217.759 373.353 217.541 373.199C217.476 373.15 217.403 373.131 217.327 373.131ZM187.735 399.909C186.049 399.909 183.826 398.89 182.848 395.967C180.323 388.432 188.791 384.734 200.515 379.612C205.421 377.47 210.985 375.037 216.483 371.986C217.074 371.654 217.783 371.695 218.326 372.084C218.53 372.23 218.788 372.41 219.089 372.602C222.005 374.476 227.017 374.509 230.034 372.679L233.669 370.474C234.326 370.074 235.111 370.005 235.822 370.293C236.533 370.581 237.063 371.175 237.272 371.923C238.149 375.097 239.919 383.707 240.663 388.862C241.176 392.442 238.95 395.852 235.485 396.797C228.853 398.611 215.717 399.002 201.813 399.422C197.189 399.561 192.405 399.706 187.917 399.904C187.857 399.906 187.795 399.909 187.735 399.909Z" fill="#222831"/>
<path d="M240.525 391.308C240.544 391.398 240.555 391.461 240.557 391.489C241.024 394.743 237.964 396.74 235.04 398.126C226.355 402.237 191.289 399.879 189.937 399.786C189.907 399.786 189.888 399.786 189.861 399.786C189.427 399.791 184.974 399.791 183.693 397C183.53 396.652 183.435 396.165 183.375 395.707C183.274 394.962 183.326 394.203 183.489 393.467C183.622 392.867 184.208 392.494 184.792 392.645C191.3 394.324 206.502 395.592 221.685 393.877C228.413 393.119 232.059 392.448 238.507 388.437C239.14 388.046 239.96 388.426 240.107 389.169C240.226 389.788 240.373 390.541 240.525 391.308Z" fill="white"/>
<path d="M189.88 399.101C189.915 399.101 189.945 399.101 189.986 399.107C191.46 399.208 226.243 401.536 234.752 397.507C238.63 395.669 240.212 393.845 239.887 391.587L239.859 391.442C239.859 391.44 239.859 391.44 239.859 391.44L239.441 389.303C239.406 389.103 239.262 389.024 239.202 388.999C239.135 388.969 239.004 388.93 238.863 389.021C232.45 393.006 228.728 393.768 221.761 394.557C207.17 396.203 191.737 395.14 184.626 393.308C184.499 393.272 184.396 393.313 184.333 393.351C184.241 393.409 184.176 393.505 184.149 393.617C183.997 394.307 183.961 394.984 184.045 395.617C184.124 396.23 184.23 396.548 184.306 396.712C185.422 399.142 189.671 399.109 189.85 399.101C189.861 399.101 189.872 399.101 189.88 399.101ZM211.929 401.218C201.074 401.218 190.687 400.523 189.891 400.471C189.34 400.482 184.534 400.457 183.076 397.288C182.911 396.926 182.786 396.425 182.701 395.798C182.598 395.003 182.639 394.168 182.829 393.319C182.935 392.839 183.217 392.439 183.627 392.187C184.029 391.938 184.502 391.867 184.96 391.982C191.957 393.79 207.178 394.828 221.609 393.198C228.516 392.42 231.948 391.716 238.152 387.857C238.632 387.561 239.227 387.517 239.745 387.747C240.275 387.977 240.658 388.459 240.769 389.037L241.19 391.177C241.212 391.286 241.222 391.363 241.225 391.396C241.779 395.214 238.124 397.416 235.325 398.745C231.217 400.69 221.394 401.218 211.929 401.218Z" fill="#222831"/>
<path d="M215.557 381.313C215.416 381.313 215.269 381.266 215.147 381.17L209.828 377.086C209.532 376.856 209.472 376.429 209.7 376.13C209.926 375.829 210.349 375.771 210.651 375.999L215.969 380.086C216.265 380.313 216.325 380.743 216.097 381.044C215.964 381.22 215.76 381.313 215.557 381.313Z" fill="#222831"/>
<path d="M208.489 384.235C208.348 384.235 208.204 384.189 208.082 384.096L203.428 380.573C203.132 380.349 203.07 379.921 203.295 379.617C203.521 379.319 203.944 379.256 204.243 379.483L208.897 383.006C209.198 383.23 209.255 383.66 209.032 383.962C208.899 384.14 208.693 384.235 208.489 384.235Z" fill="#222831"/>
<path d="M307.411 341.682L317.812 332.473L333.943 342.537C336.343 344.057 337.372 347.399 336.18 350.012C334.632 353.414 332.115 358.18 328.548 362.601C321.82 370.945 318.426 384.43 308.6 385.339C298.777 386.249 299.075 385.643 296.99 383.219C294.905 380.792 298.777 370.786 301.457 364.119C303.645 358.668 307.411 341.682 307.411 341.682Z" fill="white"/>
<path d="M308.024 342.046C307.557 344.134 304.158 359.205 302.081 364.374C300.305 368.797 295.587 380.543 297.501 382.77C297.653 382.943 297.786 383.107 297.919 383.266C299.442 385.093 299.762 385.474 308.537 384.66C314.912 384.068 318.491 377.787 322.281 371.139C324.041 368.047 325.865 364.845 328.024 362.168C331.594 357.742 334.097 352.959 335.563 349.727C336.609 347.434 335.718 344.465 333.584 343.115L317.883 333.319L308.024 342.046ZM302.325 386.419C298.942 386.419 298.193 385.717 296.882 384.142C296.757 383.992 296.621 383.836 296.477 383.663C294.438 381.291 296.74 374.029 300.827 363.861C302.972 358.525 306.71 341.701 306.748 341.534C306.781 341.392 306.854 341.266 306.963 341.17L317.364 331.961C317.587 331.761 317.913 331.736 318.168 331.895L334.298 341.956C336.994 343.662 338.113 347.401 336.796 350.297C335.295 353.603 332.732 358.495 329.072 363.031C326.984 365.62 325.192 368.773 323.451 371.819C319.658 378.478 315.735 385.364 308.665 386.021C305.847 386.282 303.827 386.419 302.325 386.419Z" fill="#222831"/>
<path d="M311.277 356.687H303.911C303.536 356.687 303.235 356.386 303.235 356.008C303.235 355.63 303.536 355.326 303.911 355.326H311.277C311.652 355.326 311.956 355.63 311.956 356.008C311.956 356.386 311.652 356.687 311.277 356.687Z" fill="#222831"/>
<path d="M310.107 363.001H302.738C302.366 363.001 302.062 362.694 302.062 362.319C302.062 361.941 302.366 361.634 302.738 361.634H310.107C310.481 361.634 310.786 361.941 310.786 362.319C310.786 362.694 310.481 363.001 310.107 363.001Z" fill="#222831"/>
<path d="M298.777 384.885C298.777 384.885 307.259 385.339 312.173 378.971C317.085 372.608 333.831 342.364 333.831 342.364L337.021 344.41C338.637 345.446 339.196 347.574 338.306 349.294C334.285 357.06 323.275 377.36 314.853 383.748C304.359 391.705 298.777 384.885 298.777 384.885Z" fill="white"/>
<path d="M300.533 385.523C302.611 386.936 307.275 388.64 314.446 383.203C322.689 376.949 333.459 357.183 337.706 348.979C338.428 347.579 337.969 345.826 336.66 344.985L334.076 343.328C331.58 347.818 317.258 373.492 312.708 379.393C308.983 384.222 303.384 385.295 300.533 385.523ZM305.323 388.265C300.748 388.265 298.294 385.364 298.253 385.317C298.084 385.112 298.049 384.819 298.171 384.575C298.294 384.334 298.549 384.194 298.812 384.203C298.896 384.205 307.009 384.553 311.641 378.554C316.463 372.301 333.071 342.331 333.239 342.033C333.332 341.868 333.486 341.748 333.666 341.701C333.848 341.657 334.038 341.687 334.192 341.789L337.385 343.832C339.283 345.051 339.951 347.588 338.906 349.609C334.619 357.901 323.726 377.872 315.257 384.296C311.285 387.306 307.954 388.265 305.323 388.265Z" fill="#222831"/>
<path d="M233.593 59.9638L250.937 69.4113C254.61 71.4109 257.529 74.5664 259.283 78.3903C264.542 89.8457 277.784 114.518 294.995 116.421C313.702 118.492 332.24 97.1265 337.942 89.8868C338.775 88.8322 340.41 89.0267 340.977 90.2483L354.213 118.815C354.485 119.402 354.428 120.092 354.05 120.621C350.344 125.918 329.411 153.411 297.979 148.426C266.652 143.46 255.87 100.183 254.046 91.6946C253.877 90.9057 253.218 90.3113 252.419 90.2648C249.96 90.1196 244.749 89.0431 242.422 82.9758C240.59 78.1931 240.557 74.7801 240.709 73.1338C240.774 72.4463 240.446 71.7889 239.862 71.4273C237.546 70.0111 232.021 66.2447 230.984 61.9743C230.615 60.4568 232.227 59.2242 233.593 59.9638Z" fill="white"/>
<path d="M232.732 60.424C232.491 60.424 232.249 60.5061 232.04 60.6732C231.684 60.9499 231.535 61.3745 231.641 61.8073C232.616 65.8257 237.962 69.466 240.215 70.8466C241.027 71.3424 241.475 72.2436 241.385 73.1941C241.241 74.7554 241.266 78.0616 243.055 82.7292C245.284 88.5473 250.378 89.4622 252.46 89.58C253.549 89.6485 254.472 90.4538 254.708 91.5467C256.538 100.074 267.236 142.86 298.084 147.75C329.036 152.658 349.679 125.685 353.499 120.226C353.73 119.9 353.768 119.467 353.6 119.103L340.361 90.536C340.195 90.1716 339.872 89.9388 339.479 89.8895C339.09 89.8484 338.718 89.9991 338.477 90.3113C333.345 96.8197 315.784 117.24 297.536 117.243C296.664 117.243 295.796 117.199 294.924 117.101C277.227 115.142 263.673 89.5745 258.67 78.6752C256.981 74.9965 254.119 71.9204 250.617 70.0111L233.273 60.5664C233.096 60.4733 232.912 60.424 232.732 60.424ZM305.554 149.711C303.069 149.711 300.509 149.519 297.873 149.1C266.155 144.071 255.249 100.515 253.386 91.8371C253.277 91.3413 252.867 90.9742 252.381 90.9468C250.033 90.8099 244.307 89.7772 241.795 83.2223C239.903 78.2945 239.884 74.7445 240.039 73.0681C240.079 72.6435 239.878 72.2354 239.512 72.0162C237.114 70.5453 231.424 66.6474 230.327 62.1332C230.093 61.1718 230.433 60.1993 231.212 59.5912C232.002 58.9722 233.039 58.8873 233.913 59.3639L251.26 68.8086C255.018 70.8576 258.089 74.1583 259.897 78.1C264.803 88.7883 278.061 113.86 295.073 115.745C295.896 115.835 296.73 115.879 297.555 115.879C315.184 115.879 332.384 95.8418 337.412 89.4622C337.95 88.7801 338.778 88.4323 339.633 88.5336C340.494 88.635 341.224 89.1691 341.591 89.958L354.827 118.525C355.199 119.333 355.117 120.286 354.607 121.018C351.026 126.124 332.995 149.708 305.554 149.711Z" fill="#222831"/>
<path d="M254.382 86.5367C252.905 86.5367 250.109 85.6438 249.311 82.1759C248.814 80.0311 248.412 79.6559 246.72 78.0644C246.386 77.7521 246.009 77.3988 245.575 76.9769C244.223 75.6731 243.815 74.2213 243.612 73.1037C243.441 72.2052 243.81 71.3232 244.567 70.8028C245.341 70.2714 246.31 70.2495 247.098 70.748L253.207 74.5938C253.522 74.7965 253.619 75.2184 253.421 75.5389C253.223 75.8566 252.805 75.9552 252.49 75.758L246.381 71.9067C245.993 71.6601 245.583 71.7533 245.33 71.9313C245.018 72.145 244.874 72.4901 244.942 72.8572C245.119 73.8269 245.447 74.9581 246.514 75.9936C246.94 76.4044 247.312 76.7551 247.646 77.0673C249.436 78.7492 250.038 79.3162 250.627 81.8637C251.401 85.211 254.336 85.1699 254.461 85.1699C254.849 85.1726 255.145 85.4547 255.159 85.83C255.173 86.208 254.879 86.5203 254.51 86.5367C254.469 86.5367 254.426 86.5367 254.382 86.5367Z" fill="#222831"/>
<path d="M475.325 133.188C475.325 133.188 472.097 108.33 467.422 96.6444C457.053 70.7042 415.734 72.0683 415.734 72.0683L415.772 72.4134C406.737 70.622 398.705 70.7562 362.777 72.0683C361.889 72.1012 360.99 72.2326 360.081 72.4518C341.113 74.6322 319.593 101.975 319.593 101.975L346.736 139.348C346.538 155.386 342.997 173.388 331.906 189.446C328.271 194.719 323.324 200.496 316.539 206.034C320.351 209.146 326.281 213.197 334.238 215.583C347.455 219.541 354.102 215.263 364.751 215.583C392.922 216.432 403.253 248.086 421.45 244.112C426.307 243.049 432.75 239.225 438.788 226.403C442.209 215.767 445.256 203.276 446.947 189.166C449.247 170.052 448.519 152.535 446.374 137.3L475.325 133.188Z" fill="white"/>
<path d="M363.602 214.882C363.99 214.882 364.379 214.885 364.772 214.896C379.76 215.35 389.691 224.296 398.456 232.191C406.243 239.203 412.979 245.262 421.309 243.443C427.743 242.035 433.41 236.217 438.158 226.145C442.046 214.055 444.778 201.589 446.279 189.084C448.326 172.044 448.134 154.655 445.706 137.39C445.682 137.212 445.728 137.028 445.839 136.883C445.945 136.741 446.103 136.645 446.287 136.617L474.57 132.605C474.014 128.564 470.959 107.305 466.797 96.8991C457.403 73.4023 421.523 72.7065 416.37 72.7421C416.329 72.8051 416.286 72.8627 416.234 72.9147C416.074 73.0626 415.854 73.1201 415.645 73.0818C406.777 71.3232 398.928 71.43 362.801 72.7476C361.992 72.7777 361.131 72.9037 360.241 73.1147C360.211 73.1174 360.189 73.1256 360.159 73.1284C342.927 75.1061 323.207 98.6111 320.449 101.997L347.284 138.943C347.371 139.064 347.415 139.206 347.415 139.354C347.173 158.832 342.148 175.815 332.468 189.835C328.347 195.806 323.354 201.254 317.617 206.029C322.824 210.151 328.477 213.14 334.434 214.926C342.745 217.416 348.311 216.61 354.205 215.753C357.154 215.323 360.189 214.882 363.602 214.882ZM418.268 245.144C410.804 245.144 404.597 239.554 397.552 233.21C388.964 225.469 379.225 216.701 364.732 216.268C360.949 216.153 357.618 216.632 354.398 217.103C348.618 217.942 342.642 218.81 334.048 216.238C327.671 214.326 321.638 211.074 316.113 206.566C315.952 206.434 315.86 206.24 315.86 206.037C315.86 205.829 315.952 205.634 316.113 205.506C322.023 200.682 327.152 195.146 331.358 189.057C340.842 175.317 345.783 158.668 346.057 139.568L319.05 102.378C318.868 102.128 318.874 101.789 319.067 101.548C319.952 100.422 340.947 73.9912 359.967 71.7725C360.93 71.5478 361.867 71.4164 362.755 71.3835C398.105 70.0906 406.487 69.9618 415.232 71.6108C415.357 71.4711 415.531 71.3917 415.715 71.3835C416.131 71.3725 457.626 70.307 468.054 96.3841C472.705 108.023 475.971 132.848 475.998 133.098C476.047 133.467 475.792 133.81 475.426 133.862L447.145 137.878C449.494 155.033 449.659 172.315 447.626 189.246C446.111 201.854 443.355 214.424 439.434 226.611C439.424 226.641 439.413 226.666 439.402 226.691C434.46 237.19 428.468 243.274 421.594 244.78C420.456 245.027 419.351 245.144 418.268 245.144Z" fill="#222831"/>
<path d="M438.891 133.185C438.891 133.185 446.141 157.734 443.754 167.538C440.398 181.338 395.952 190.782 392.893 191.448C389.835 192.111 375.616 189.005 369.597 194.505C365.991 197.8 363.453 197.387 359.049 198.044C357.653 198.255 356.698 199.709 356.947 201.117C357.162 202.353 358.354 204.15 361.522 204.15C365.383 204.15 365.799 203.785 368.84 203.051C369.795 202.816 370.479 203.939 369.814 204.637C368.259 206.267 365.326 210.009 364.8 211.658C362.356 219.248 365.416 227.036 382.304 214.027C389.287 208.647 391.076 204.829 394.866 203.829C398.657 202.827 446.887 196.91 455.649 192.905C468.244 187.142 472.998 150.059 470.373 131.534C469.273 123.757 438.891 133.185 438.891 133.185Z" fill="white"/>
<path d="M369.087 202.336C369.684 202.336 370.232 202.649 370.539 203.183C370.903 203.824 370.811 204.577 370.3 205.111C368.669 206.82 365.907 210.414 365.443 211.869C364.281 215.471 364.582 218.558 366.203 219.714C367.677 220.768 371.674 221.357 381.894 213.482C384.842 211.209 386.865 209.209 388.494 207.601C390.731 205.385 392.349 203.785 394.695 203.164C395.827 202.868 400.573 202.177 407.144 201.219C422.881 198.929 449.228 195.091 455.369 192.283C467.05 186.942 472.482 151.228 469.705 131.627C469.621 131.01 469.287 130.526 468.687 130.139C463.506 126.828 443.57 132.509 439.73 133.645C440.89 137.699 446.624 158.613 444.414 167.702C441.251 180.713 404.404 189.651 393.188 192.083L393.042 192.116C392.1 192.316 390.454 192.218 388.179 192.078C382.61 191.736 374.202 191.221 370.05 195.006C366.982 197.814 364.561 198.082 361.495 198.425C360.768 198.507 359.997 198.592 359.152 198.721C358.685 198.786 358.272 199.055 357.974 199.471C357.653 199.92 357.52 200.476 357.615 200.994C357.689 201.41 358.215 203.465 361.522 203.465C364.52 203.465 365.329 203.254 367.096 202.786C367.553 202.665 368.063 202.536 368.679 202.383C368.821 202.35 368.954 202.336 369.087 202.336ZM368.354 221.675C367.053 221.675 366.108 221.322 365.421 220.829C363.271 219.297 362.788 215.698 364.156 211.441C364.748 209.606 367.835 205.727 369.326 204.163C369.412 204.07 369.429 203.972 369.364 203.862C369.336 203.813 369.236 203.657 368.994 203.714C368.389 203.859 367.887 203.991 367.441 204.106C365.611 204.588 364.696 204.832 361.522 204.832C358.12 204.832 356.573 202.892 356.282 201.235C356.128 200.35 356.342 199.416 356.874 198.674C357.387 197.956 358.129 197.491 358.951 197.367C359.815 197.241 360.607 197.151 361.346 197.066C364.39 196.726 366.396 196.505 369.144 193.995C373.716 189.824 382.472 190.355 388.263 190.714C390.27 190.837 392.002 190.944 392.754 190.777L392.903 190.747C400.747 189.046 440.048 179.932 443.097 167.376C445.413 157.863 438.316 133.624 438.243 133.38C438.139 133.021 438.338 132.643 438.693 132.533C439.69 132.221 463.178 124.998 469.409 128.989C470.354 129.591 470.905 130.413 471.049 131.432C473.623 149.634 469.127 187.49 455.929 193.524C449.611 196.414 423.144 200.271 407.337 202.569C401.057 203.487 396.096 204.21 395.04 204.489C393.045 205.015 391.608 206.431 389.444 208.576C387.788 210.212 385.73 212.247 382.719 214.567C375.63 220.026 371.164 221.675 368.354 221.675Z" fill="#222831"/>
<path d="M382.01 64.1L383.686 53.5897C383.045 38.4583 405.583 35.1247 403.557 34.9494L402.349 63.6562C402.211 66.9569 404.339 69.929 407.492 70.8302C411.059 71.8464 415.308 73.0544 416.598 73.3995C413.543 73.2489 392.42 82.5211 368.462 72.3915L377.039 69.8139C379.648 69.0278 381.581 66.809 382.01 64.1Z" fill="white"/>
<path d="M370.517 72.4874C388.942 79.5737 405.542 75.3361 412.761 73.4954C413.066 73.416 413.348 73.3475 413.611 73.2763C411.746 72.7531 409.359 72.071 407.31 71.4848C403.837 70.496 401.521 67.2637 401.673 63.6233L402.83 36.0259C402.775 36.0424 402.721 36.0615 402.664 36.078C390.186 39.8416 384.03 45.7254 384.362 53.565C384.364 53.6116 384.362 53.6554 384.354 53.702L382.678 64.2095C382.209 67.1569 380.072 69.6167 377.235 70.4686L370.517 72.4874ZM392.184 77.8124C385.002 77.8124 376.776 76.6455 368.201 73.0215C367.933 72.9092 367.773 72.6435 367.786 72.3559C367.802 72.0683 367.992 71.819 368.272 71.7368L376.852 69.1593C379.187 68.4553 380.954 66.4255 381.342 63.9904L383.004 53.5541C382.678 45.0461 389.167 38.7295 402.27 34.7714C402.539 34.6892 402.811 34.607 403.012 34.544C403.039 34.5057 403.071 34.4701 403.104 34.4399C403.245 34.3167 403.43 34.2564 403.609 34.2701C404.25 34.3249 404.342 34.7823 404.353 34.9193C404.38 35.1576 404.342 35.322 404.209 35.4562L403.022 63.6809C402.9 66.6885 404.812 69.3537 407.679 70.1728C411.1 71.1479 415.455 72.386 416.769 72.7366C417.106 72.827 417.32 73.1557 417.266 73.5036C417.214 73.846 416.894 74.0898 416.563 74.0816C416.071 74.0487 414.762 74.3939 413.095 74.8157C408.835 75.9032 401.372 77.8124 392.184 77.8124Z" fill="#222831"/>
<path d="M369.708 5.40443C375.578 4.62924 368.622 11.2937 389.938 3.27881C398.431 0.0849087 394.796 10.6363 397 9.81728C405.146 6.77403 404.863 6.8699 409.006 7.65331C411.746 8.17102 413.866 13.0495 413.638 16.8269C413.334 21.815 409.395 23.3845 406.593 34.0784C404.627 41.5865 405.569 45.9939 402.74 47.2758C399.878 48.5687 397.416 44.7448 394.182 45.9199C390.001 47.4429 391.402 54.847 387.47 58.249C384.992 60.3911 378.959 61.7415 368.831 57.6519C367.189 56.989 366.241 55.2332 366.586 53.4746C367.023 51.2257 367.591 48.3824 368.356 45.7172C372.008 33.0073 376.165 29.8929 374.346 26.7976C371.557 22.067 362.562 25.554 360.743 21.6287C358.848 17.5555 361.677 6.46176 369.708 5.40443Z" fill="#222831"/>
<path d="M391.855 25.2143L390.4 28.515C389.716 30.0709 389.14 31.6706 388.679 33.3086C387.804 36.3765 386.265 41.6413 385.179 44.5284C383.585 48.7604 370.278 44.701 370.278 44.701L369.312 42.2275L367.762 41.7207C367.463 41.6194 367.181 41.4577 366.966 41.2222C366.442 40.6278 366.377 39.7978 366.738 39.1513C368.742 35.637 372.874 27.7645 374.058 20.8836C374.058 20.8836 383.474 17.6788 391.855 25.2143Z" fill="white"/>
<path d="M370.784 44.1422C375.725 45.5994 383.569 46.8759 384.544 44.2846C385.635 41.4002 387.191 36.0506 388.022 33.1196C388.497 31.4624 389.089 29.8189 389.781 28.2384L391.033 25.3978C384.079 19.4401 376.417 20.9658 374.65 21.4233C373.387 28.1535 369.54 35.6041 367.33 39.4937C367.099 39.8991 367.156 40.4114 367.474 40.7647C367.585 40.8935 367.759 40.9976 367.971 41.0715L369.518 41.581C369.714 41.6413 369.866 41.7892 369.945 41.9782L370.784 44.1422ZM380.305 47.1306C376.094 47.1306 370.96 45.6241 370.08 45.3556C369.882 45.2954 369.722 45.1447 369.646 44.9502L368.799 42.778L367.553 42.3672C367.115 42.2247 366.741 41.9864 366.464 41.6769C365.758 40.8853 365.63 39.7348 366.157 38.8144C367.935 35.6808 372.206 27.6467 373.393 20.7686C373.436 20.5193 373.607 20.3194 373.841 20.2372C374.24 20.103 383.729 16.994 392.306 24.7048C392.52 24.8993 392.588 25.2171 392.472 25.491L391.019 28.7917C390.351 30.3174 389.781 31.9007 389.328 33.4949C388.489 36.445 386.917 41.8385 385.809 44.7694C385.135 46.5554 382.896 47.1306 380.305 47.1306Z" fill="#222831"/>
<path d="M390.286 36.4888C390.286 36.4888 393.764 28.5452 397 30.9255C400.229 33.3114 396.18 41.9563 390.286 36.4888Z" fill="white"/>
<path d="M227.859 216.197H360.371C363.347 216.197 365.761 213.764 365.761 210.759V208.434H222.472V210.759C222.472 213.764 224.883 216.197 227.859 216.197Z" fill="white"/>
<path d="M223.148 209.119V210.759C223.148 213.383 225.26 215.515 227.859 215.515H360.371C362.969 215.515 365.082 213.383 365.082 210.759V209.119H223.148ZM360.371 216.881H227.859C224.516 216.881 221.793 214.134 221.793 210.759V208.434C221.793 208.058 222.097 207.754 222.472 207.754H365.761C366.135 207.754 366.434 208.058 366.434 208.434V210.759C366.434 214.134 363.716 216.881 360.371 216.881Z" fill="#222831"/>
<path d="M222.467 208.579H304.457L278.405 131.219C276.847 128.8 274.135 127.332 271.213 127.332H201.905C198.761 127.332 196.736 130.408 197.762 133.125C198.169 134.21 198.612 135.275 198.968 136.374L222.467 208.579Z" fill="white"/>
<path d="M222.958 207.894H303.512L277.797 131.52C276.347 129.32 273.896 128.011 271.213 128.011H201.905C200.637 128.011 199.508 128.6 198.807 129.624C198.145 130.594 197.993 131.81 198.395 132.881C198.511 133.185 198.628 133.492 198.745 133.791C199.044 134.56 199.35 135.352 199.611 136.157L222.958 207.894ZM304.457 209.258H222.469C222.176 209.258 221.915 209.069 221.826 208.784L198.327 136.587C198.074 135.815 197.776 135.04 197.485 134.289C197.366 133.982 197.246 133.676 197.129 133.369C196.567 131.876 196.779 130.189 197.694 128.852C198.65 127.447 200.187 126.644 201.905 126.644H271.213C274.382 126.644 277.284 128.216 278.978 130.843C279.006 130.893 279.03 130.945 279.049 130.997L305.103 208.357C305.171 208.565 305.141 208.793 305.011 208.973C304.886 209.154 304.679 209.258 304.457 209.258Z" fill="#222831"/>
<path d="M252.897 166.908C253.872 170.181 252.379 173.525 249.56 174.383C246.742 175.243 243.666 173.287 242.689 170.017C241.711 166.746 243.207 163.399 246.023 162.538C248.841 161.681 251.92 163.637 252.897 166.908Z" fill="white"/>
<path d="M247.383 163.023C246.989 163.023 246.601 163.078 246.221 163.196C243.758 163.944 242.466 166.916 243.337 169.819C243.758 171.244 244.635 172.433 245.795 173.172C246.924 173.887 248.195 174.087 249.365 173.731C251.822 172.983 253.114 170.011 252.248 167.108C251.822 165.683 250.951 164.492 249.786 163.755C249.028 163.27 248.197 163.023 247.383 163.023ZM248.195 175.27C247.128 175.27 246.058 174.953 245.072 174.325C243.636 173.413 242.558 171.953 242.04 170.214C240.956 166.587 242.659 162.854 245.827 161.887C247.383 161.413 249.045 161.667 250.513 162.602C251.944 163.511 253.025 164.971 253.543 166.713C254.624 170.34 252.927 174.073 249.759 175.04C249.248 175.196 248.724 175.27 248.195 175.27Z" fill="#222831"/>
<path d="M58.0058 298.222C66.447 300.087 71.8038 308.445 69.9711 316.884C68.1385 325.326 59.8086 330.654 51.3647 328.789C42.9235 326.92 37.5666 318.569 39.3993 310.129C41.232 301.684 49.5618 296.357 58.0058 298.222ZM16.4541 298.945L20.7385 302.52C21.4281 303.098 21.7404 304.021 21.515 304.889C21.2788 305.807 21.0806 306.727 20.9204 307.656C20.7711 308.538 20.114 309.247 19.2533 309.488L13.8992 310.976C12.8457 311.266 12.1371 312.252 12.1941 313.348L12.4276 317.802C12.4874 318.895 13.2937 319.804 14.3716 319.993L19.867 320.954C20.7575 321.111 21.4797 321.763 21.7241 322.631C21.9766 323.532 22.2644 324.42 22.5875 325.293C22.9024 326.143 22.6961 327.09 22.0662 327.734L18.1755 331.711C17.4098 332.495 17.2931 333.703 17.8877 334.626L20.3177 338.373C20.9123 339.296 22.0662 339.682 23.0925 339.304L28.3082 337.395C29.1525 337.086 30.1028 337.288 30.749 337.918C31.4142 338.568 32.112 339.195 32.8342 339.797C33.532 340.373 33.8306 341.307 33.608 342.181L32.2342 347.574C31.9654 348.634 32.4677 349.743 33.4424 350.242L37.4146 352.285C38.3893 352.787 39.5785 352.546 40.279 351.705L43.8357 347.432C44.4086 346.744 45.329 346.435 46.2006 346.662C47.1183 346.903 48.0414 347.106 48.9645 347.264C49.8496 347.421 50.561 348.081 50.8026 348.944L52.3095 354.307C52.6054 355.362 53.5937 356.074 54.6852 356.022L59.1379 355.805C60.2321 355.748 61.139 354.945 61.3236 353.866L62.263 348.374C62.4151 347.486 63.0531 346.763 63.9192 346.522C64.8233 346.273 65.7193 345.985 66.6017 345.662C67.4434 345.353 68.3882 345.569 69.029 346.199L73.0202 350.105C73.8048 350.875 75.013 350.998 75.9307 350.404L79.6694 347.988C80.5871 347.396 80.9699 346.246 80.5898 345.216L78.6594 339.986C78.3499 339.14 78.5454 338.192 79.1753 337.549C79.8242 336.886 80.4459 336.19 81.046 335.467C81.6216 334.774 82.5474 334.478 83.4217 334.703L88.8193 336.097C89.8809 336.373 90.9859 335.875 91.4827 334.9L93.5082 330.936C94.0051 329.961 93.758 328.769 92.9163 328.065L88.6319 324.491C87.9423 323.916 87.63 322.992 87.8554 322.121C88.0943 321.204 88.2898 320.281 88.45 319.358C88.5993 318.476 89.2564 317.763 90.1171 317.525L95.4712 316.038C96.5247 315.745 97.2333 314.761 97.1763 313.665L96.9428 309.212C96.8858 308.119 96.0767 307.204 94.9988 307.015L89.5035 306.053C88.6211 305.9 87.8934 305.259 87.6518 304.393C87.3965 303.484 87.106 302.588 86.7775 301.703C86.4653 300.862 86.6798 299.915 87.3042 299.276L91.195 295.296C91.9579 294.516 92.0801 293.305 91.4827 292.387L89.0555 288.635C88.4581 287.717 87.3042 287.331 86.2779 287.706L81.0623 289.618C80.2179 289.925 79.2676 289.725 78.6214 289.095C77.9562 288.44 77.2584 287.813 76.5362 287.213C75.8384 286.635 75.5398 285.707 75.7624 284.833L77.1362 279.439C77.4078 278.376 76.9055 277.267 75.928 276.766L71.9586 274.728C70.9811 274.227 69.7919 274.468 69.0914 275.309L65.5374 279.582C64.9618 280.269 64.0414 280.576 63.1726 280.346C62.2521 280.108 61.329 279.905 60.4032 279.743C59.5208 279.59 58.8094 278.93 58.5678 278.07L57.0609 272.706C56.765 271.652 55.7767 270.937 54.6852 270.992L50.2325 271.208C49.1383 271.26 48.2314 272.065 48.0468 273.145L47.1074 278.639C46.9554 279.527 46.3065 280.25 45.4403 280.488C44.5416 280.74 43.6565 281.025 42.7796 281.346C41.9352 281.655 40.9876 281.444 40.3414 280.814L36.3502 276.905C35.5656 276.138 34.3574 276.015 33.4397 276.607L29.701 279.023C28.7833 279.615 28.4005 280.768 28.7806 281.798L30.7083 287.024C31.0232 287.868 30.8223 288.818 30.1951 289.462C29.5462 290.128 28.9245 290.821 28.3244 291.544C27.7488 292.239 26.823 292.533 25.9487 292.308L20.5512 290.911C19.4896 290.64 18.3845 291.136 17.8877 292.108L15.8649 296.077C15.3681 297.052 15.6124 298.244 16.4541 298.945Z" fill="#222831"/>
<path d="M115.351 356.619C124.181 357.008 131.025 364.48 130.642 373.306C130.26 382.129 122.793 388.971 113.966 388.58C105.137 388.191 98.2922 380.721 98.675 371.893C99.0551 363.07 106.522 356.227 115.351 356.619ZM73.6229 364.683L78.5562 367.526C79.3518 367.987 79.8269 368.858 79.7509 369.775C79.6721 370.742 79.6314 371.706 79.6314 372.665C79.6341 373.585 79.0938 374.413 78.2684 374.807L73.1342 377.248C72.1242 377.733 71.5812 378.847 71.8283 379.94L72.8356 384.389C73.0853 385.479 74.0573 386.254 75.176 386.254H80.8776C81.8008 386.254 82.6424 386.777 83.0388 387.61C83.4488 388.473 83.8941 389.317 84.372 390.144C84.8335 390.938 84.7928 391.933 84.2688 392.691L81.0405 397.386C80.4052 398.307 80.4948 399.548 81.255 400.372L84.3529 403.717C85.1132 404.541 86.3404 404.725 87.3097 404.166L92.2348 401.32C93.0304 400.86 94.0241 400.895 94.7816 401.416C95.5662 401.955 96.3753 402.465 97.2089 402.941C98.0098 403.402 98.4741 404.284 98.4008 405.204L97.9528 410.88C97.8659 411.997 98.561 413.027 99.6334 413.356L103.986 414.712C105.058 415.043 106.212 414.591 106.771 413.622L109.611 408.691C110.07 407.894 110.947 407.423 111.862 407.497C112.829 407.576 113.795 407.617 114.754 407.617C115.669 407.617 116.502 408.154 116.893 408.984L119.342 414.117C119.826 415.128 120.941 415.67 122.036 415.427L126.48 414.421C127.572 414.175 128.348 413.202 128.345 412.085L128.34 406.385C128.337 405.467 128.859 404.623 129.687 404.232C130.556 403.815 131.408 403.369 132.242 402.884C133.034 402.426 134.023 402.476 134.78 402.996L139.477 406.231C140.4 406.867 141.639 406.776 142.461 406.018L145.806 402.925C146.629 402.166 146.813 400.936 146.254 399.967L143.403 395.042C142.942 394.244 142.977 393.253 143.498 392.494C144.036 391.711 144.544 390.9 145.019 390.07C145.478 389.267 146.36 388.807 147.283 388.878L152.96 389.333C154.076 389.421 155.105 388.722 155.437 387.654L156.786 383.301C157.117 382.233 156.664 381.074 155.695 380.518L150.758 377.672C149.963 377.212 149.491 376.341 149.567 375.423C149.645 374.456 149.683 373.492 149.683 372.534C149.683 371.619 150.221 370.786 151.049 370.394L156.183 367.948C157.193 367.466 157.736 366.351 157.486 365.258L156.479 360.815C156.232 359.72 155.26 358.947 154.139 358.947H148.44C147.522 358.95 146.678 358.429 146.284 357.602C145.871 356.731 145.421 355.879 144.937 355.044C144.479 354.252 144.527 353.263 145.046 352.507L148.277 347.812C148.91 346.889 148.823 345.651 148.06 344.829L144.965 341.482C144.204 340.66 142.974 340.474 142.005 341.033L137.083 343.879C136.284 344.339 135.293 344.306 134.536 343.783C133.751 343.243 132.942 342.734 132.106 342.26C131.305 341.797 130.843 340.915 130.914 339.995L131.362 334.319C131.452 333.201 130.754 332.171 129.684 331.84L125.332 330.487C124.259 330.155 123.103 330.607 122.546 331.58L119.703 336.51C119.244 337.307 118.37 337.781 117.455 337.702C116.489 337.623 115.522 337.581 114.564 337.581C113.646 337.581 112.815 337.045 112.421 336.215L109.975 331.081C109.492 330.071 108.373 329.528 107.282 329.775L102.837 330.777C101.743 331.027 100.969 331.996 100.969 333.117L100.975 338.817C100.977 339.737 100.451 340.578 99.6199 340.975C98.7565 341.383 97.9121 341.83 97.0894 342.304C96.2912 342.769 95.2975 342.726 94.5372 342.202L89.8401 338.97C88.917 338.335 87.6789 338.422 86.8563 339.184L83.5113 342.276C82.6886 343.035 82.5013 344.262 83.0633 345.232L85.9141 350.157C86.3757 350.954 86.3404 351.943 85.8191 352.705C85.2815 353.488 84.7738 354.299 84.2959 355.129C83.8371 355.931 82.9547 356.394 82.0315 356.32L76.357 355.868C75.2384 355.781 74.2094 356.476 73.8781 357.545L72.5288 361.897C72.1975 362.966 72.6536 364.124 73.6229 364.683Z" fill="white"/>
<path d="M114.629 357.287C110.79 357.287 107.146 358.698 104.301 361.306C101.284 364.069 99.5275 367.839 99.3483 371.923C99.1719 376.01 100.597 379.921 103.361 382.937C106.128 385.956 109.905 387.72 113.994 387.898C122.437 388.27 129.6 381.71 129.966 373.276C130.33 364.839 123.762 357.676 115.321 357.301C115.09 357.293 114.86 357.287 114.629 357.287ZM114.68 389.281C114.433 389.281 114.184 389.276 113.936 389.262C109.486 389.067 105.379 387.15 102.368 383.866C99.3565 380.579 97.8062 376.316 97.9989 371.865C98.1917 367.411 100.106 363.302 103.391 360.295C106.674 357.29 110.928 355.745 115.381 355.937C124.566 356.342 131.718 364.146 131.318 373.333C130.93 382.271 123.54 389.276 114.68 389.281ZM114.756 406.932C115.918 406.932 116.996 407.623 117.504 408.688L119.953 413.822C120.301 414.553 121.093 414.939 121.886 414.758L126.331 413.753C127.121 413.578 127.669 412.89 127.669 412.085L127.661 406.387C127.661 405.201 128.343 404.114 129.396 403.613C130.249 403.21 131.09 402.763 131.902 402.295C132.912 401.709 134.191 401.766 135.16 402.432L139.857 405.667C140.525 406.127 141.41 406.061 142.002 405.514L145.35 402.421C145.939 401.873 146.072 401.008 145.668 400.312L142.82 395.389C142.225 394.365 142.274 393.075 142.942 392.105C143.466 391.346 143.965 390.547 144.435 389.728C145.019 388.706 146.156 388.106 147.335 388.199L153.015 388.651C153.818 388.72 154.551 388.221 154.79 387.454L156.142 383.099C156.379 382.329 156.058 381.515 155.358 381.11L150.425 378.264C149.398 377.672 148.795 376.536 148.89 375.366C148.969 374.421 149.007 373.468 149.007 372.534C149.005 371.364 149.691 370.282 150.758 369.775L155.893 367.329C156.62 366.984 157.006 366.195 156.827 365.412L155.819 360.966C155.64 360.177 154.951 359.629 154.141 359.629H148.44C147.259 359.629 146.175 358.95 145.673 357.895C145.269 357.043 144.826 356.202 144.354 355.389C143.764 354.378 143.819 353.091 144.492 352.118L147.72 347.423C148.176 346.76 148.111 345.887 147.566 345.295L144.47 341.95C143.919 341.351 143.045 341.219 142.344 341.627L137.419 344.473C136.404 345.059 135.12 345.01 134.153 344.347C133.39 343.824 132.589 343.32 131.772 342.852C130.748 342.265 130.148 341.123 130.241 339.943L130.689 334.264C130.751 333.462 130.257 332.733 129.486 332.495L125.131 331.142C124.357 330.901 123.534 331.224 123.13 331.922L120.287 336.856C119.698 337.88 118.568 338.485 117.401 338.384C116.456 338.305 115.506 338.266 114.575 338.266C114.569 338.266 114.569 338.263 114.561 338.266C113.399 338.266 112.318 337.576 111.811 336.51L109.364 331.377C109.017 330.649 108.221 330.262 107.428 330.44L102.984 331.446C102.196 331.624 101.645 332.308 101.648 333.117L101.653 338.817C101.656 339.997 100.969 341.09 99.9076 341.594C99.066 341.992 98.2324 342.433 97.4261 342.898C96.4106 343.487 95.1264 343.432 94.1571 342.764L89.4573 339.534C88.7894 339.072 87.907 339.135 87.3124 339.685L83.9674 342.778C83.3755 343.326 83.2452 344.191 83.647 344.887L86.4978 349.815C87.0897 350.834 87.0409 352.124 86.3757 353.096C85.8516 353.852 85.3521 354.655 84.8824 355.474C84.2959 356.493 83.1556 357.09 81.9799 357.002L76.3027 356.55C75.4909 356.482 74.7632 356.98 74.5243 357.75L73.1749 362.1C72.936 362.867 73.2591 363.689 73.9596 364.091L78.8929 366.935C79.9192 367.526 80.5219 368.663 80.4242 369.833C80.3482 370.78 80.3074 371.731 80.3102 372.665C80.3102 373.835 79.6232 374.917 78.5562 375.423L73.422 377.867C72.6943 378.215 72.3115 379.004 72.4907 379.79L73.498 384.233C73.6772 385.022 74.3668 385.572 75.1759 385.572L80.8776 385.569C82.056 385.569 83.1447 386.254 83.6497 387.317C84.0461 388.15 84.486 388.988 84.9557 389.796C85.5476 390.818 85.496 392.108 84.8253 393.08L81.5944 397.775C81.141 398.438 81.2034 399.312 81.7492 399.904L84.8471 403.254C85.3955 403.845 86.2725 403.98 86.973 403.571L91.8954 400.725C92.9163 400.139 94.1978 400.189 95.1617 400.854C95.9246 401.377 96.7256 401.879 97.5428 402.347C98.5664 402.933 99.1691 404.075 99.0741 405.259L98.6288 410.937C98.5637 411.737 99.0605 412.466 99.8316 412.704L104.184 414.06C104.96 414.301 105.783 413.975 106.185 413.276L109.028 408.346C109.619 407.319 110.752 406.713 111.916 406.817C112.859 406.897 113.812 406.932 114.743 406.932C114.746 406.932 114.748 406.938 114.756 406.932ZM121.495 416.169C120.333 416.169 119.253 415.506 118.731 414.416L116.285 409.277C116 408.683 115.4 408.302 114.756 408.302C114.754 408.302 114.754 408.302 114.754 408.302C113.768 408.318 112.788 408.261 111.805 408.176C111.162 408.127 110.529 408.458 110.198 409.033L107.358 413.964C106.636 415.216 105.167 415.791 103.787 415.364L99.4325 414.011C98.0505 413.58 97.1654 412.271 97.2794 410.828L97.7247 405.149C97.779 404.492 97.4451 403.862 96.8749 403.536C96.0251 403.048 95.1915 402.525 94.4014 401.983C93.8584 401.607 93.1416 401.583 92.5688 401.914L87.6463 404.76C86.3974 405.481 84.8389 405.245 83.8588 404.185L80.7609 400.835C79.7753 399.769 79.6613 398.192 80.4839 396.997L83.7149 392.302C84.0841 391.763 84.114 391.048 83.7882 390.486C83.2995 389.645 82.8433 388.774 82.4279 387.906C82.1483 387.317 81.5374 386.934 80.8803 386.934C80.8776 386.934 80.8776 386.934 80.8776 386.934L75.1759 386.936C73.7315 386.936 72.4989 385.95 72.1785 384.539L71.1712 380.091C70.8481 378.678 71.5377 377.256 72.8464 376.634L77.9806 374.191C78.5725 373.906 78.9553 373.309 78.9553 372.668C78.9553 371.695 78.9933 370.704 79.0775 369.718C79.1291 369.079 78.7924 368.449 78.2195 368.118L73.2862 365.275C72.0319 364.552 71.4535 363.078 71.8825 361.695L73.2319 357.342C73.6609 355.959 74.9587 355.068 76.4086 355.186L82.0858 355.641C82.751 355.693 83.3836 355.359 83.7094 354.789C84.1954 353.937 84.7195 353.104 85.2625 352.316C85.6317 351.781 85.6562 351.066 85.3276 350.499L82.4768 345.577C81.7519 344.32 81.9881 342.756 83.0524 341.772L86.3974 338.68C87.459 337.699 89.031 337.584 90.2202 338.406L94.92 341.635C95.463 342.013 96.1825 342.041 96.75 341.715C97.589 341.227 98.4551 340.773 99.3293 340.356C99.9185 340.077 100.301 339.471 100.299 338.817L100.293 333.117C100.293 331.667 101.276 330.432 102.688 330.112L107.132 329.106C108.542 328.789 109.962 329.479 110.583 330.783L113.032 335.921C113.315 336.516 113.915 336.899 114.561 336.899C114.564 336.899 114.564 336.899 114.564 336.899C114.566 336.899 114.569 336.899 114.575 336.899C115.544 336.899 116.532 336.94 117.512 337.023C118.156 337.075 118.788 336.74 119.117 336.168L121.96 331.235C122.682 329.983 124.151 329.408 125.53 329.835L129.885 331.188C131.267 331.618 132.152 332.928 132.038 334.371L131.59 340.049C131.538 340.704 131.872 341.34 132.44 341.666C133.29 342.15 134.123 342.674 134.916 343.216C135.459 343.591 136.176 343.616 136.746 343.284L141.671 340.438C142.92 339.718 144.478 339.954 145.459 341.014L148.554 344.364C149.539 345.429 149.653 347.01 148.833 348.201L145.603 352.896C145.233 353.436 145.198 354.145 145.521 354.699C146.013 355.545 146.474 356.419 146.895 357.306C147.172 357.89 147.777 358.265 148.44 358.265L154.139 358.262C154.139 358.262 154.139 358.262 154.141 358.262C155.583 358.262 156.819 359.248 157.139 360.659L158.146 365.108C158.469 366.521 157.777 367.943 156.471 368.567L151.337 371.011C150.742 371.293 150.359 371.89 150.362 372.531C150.362 373.503 150.321 374.498 150.24 375.481C150.188 376.122 150.522 376.749 151.095 377.081L156.031 379.924C157.286 380.65 157.864 382.121 157.432 383.507L156.083 387.857C155.656 389.24 154.348 390.127 152.909 390.012L147.229 389.558C146.564 389.506 145.934 389.84 145.608 390.41C145.119 391.259 144.598 392.091 144.055 392.883C143.686 393.417 143.659 394.132 143.987 394.699L146.838 399.622C147.566 400.879 147.329 402.443 146.265 403.426L142.917 406.519C141.858 407.502 140.286 407.614 139.094 406.795L134.397 403.563C133.854 403.188 133.138 403.155 132.576 403.478C131.734 403.969 130.857 404.429 129.974 404.851C129.391 405.125 129.016 405.727 129.016 406.385L129.021 412.085C129.024 413.534 128.041 414.769 126.627 415.084L122.182 416.09C121.951 416.144 121.723 416.169 121.495 416.169Z" fill="#222831"/>
<path d="M515.851 78.152C515.631 78.152 515.405 78.1712 515.183 78.2151C514.197 78.3904 513.342 78.9464 512.766 79.7764C512.193 80.6036 511.976 81.6089 512.155 82.6032C512.329 83.5976 512.883 84.4604 513.703 85.0411C514.526 85.6136 515.517 85.8382 516.505 85.6575C517.485 85.4821 518.346 84.9233 518.919 84.0961C520.1 82.3841 519.681 80.0257 517.985 78.8314C517.349 78.3821 516.608 78.152 515.851 78.152ZM515.832 87.0846C514.797 87.0846 513.795 86.7668 512.932 86.1587C511.808 85.3726 511.064 84.1947 510.819 82.8416C510.581 81.4911 510.876 80.1215 511.656 78.993C512.432 77.8644 513.6 77.1112 514.944 76.8674C516.285 76.6263 517.637 76.9249 518.756 77.711C521.063 79.3299 521.639 82.5457 520.032 84.874C519.25 86.0053 518.088 86.7586 516.744 87.0024C516.44 87.0572 516.133 87.0846 515.832 87.0846Z" fill="#222831"/>
<path d="M494.16 40.6497C493.967 40.6497 493.78 40.5675 493.647 40.4114C493.405 40.1238 493.44 39.691 493.725 39.4499L497 36.6286C497.285 36.382 497.714 36.4176 497.958 36.7025C498.197 36.9901 498.167 37.4229 497.879 37.664L494.602 40.4853C494.475 40.5977 494.314 40.6497 494.16 40.6497Z" fill="#222831"/>
<path d="M483.796 49.563C483.606 49.563 483.419 49.4836 483.28 49.3247C483.041 49.0371 483.071 48.6071 483.356 48.3605L486.642 45.5419C486.921 45.2954 487.348 45.331 487.592 45.6186C487.836 45.9035 487.801 46.3363 487.516 46.5773L484.236 49.4014C484.111 49.5083 483.951 49.563 483.796 49.563Z" fill="#222831"/>
<path d="M487.597 40.1265C487.407 40.1265 487.215 40.0443 487.081 39.8854L484.288 36.5765C484.043 36.2916 484.076 35.8588 484.364 35.615C484.646 35.3685 485.075 35.4041 485.314 35.689L488.113 38.9979C488.352 39.2883 488.32 39.7156 488.034 39.9621C487.912 40.0717 487.752 40.1265 487.597 40.1265Z" fill="#222831"/>
<path d="M496.435 50.582C496.239 50.582 496.049 50.4998 495.919 50.3382L493.12 47.0348C492.875 46.7471 492.911 46.3116 493.196 46.0706C493.481 45.824 493.907 45.8596 494.151 46.1473L496.948 49.4562C497.19 49.7411 497.157 50.1739 496.872 50.4149C496.742 50.5272 496.587 50.582 496.435 50.582Z" fill="#222831"/>
<path d="M35.2533 469.534C34.8895 469.534 34.5908 469.247 34.5746 468.877L34.4116 464.532C34.3981 464.154 34.6913 463.839 35.0633 463.826C35.4352 463.809 35.7529 464.102 35.7665 464.48L35.9294 468.825C35.943 469.203 35.6497 469.518 35.2778 469.534C35.2696 469.534 35.2615 469.534 35.2533 469.534Z" fill="#222831"/>
<path d="M35.7665 483.266C35.4027 483.266 35.1013 482.975 35.0904 482.606L34.9275 478.261C34.9139 477.883 35.2045 477.568 35.5764 477.554C35.9484 477.538 36.2661 477.834 36.2796 478.212L36.4425 482.554C36.4561 482.932 36.1656 483.249 35.7909 483.263C35.7828 483.266 35.7746 483.266 35.7665 483.266Z" fill="#222831"/>
<path d="M26.47 474.569C26.1089 474.569 25.8076 474.278 25.794 473.911C25.7777 473.533 26.0709 473.218 26.4456 473.202L30.7517 473.038C31.1291 473.018 31.4386 473.32 31.4522 473.698C31.4658 474.07 31.1753 474.388 30.8033 474.404L26.4945 474.569C26.4863 474.569 26.4782 474.569 26.47 474.569Z" fill="#222831"/>
<path d="M40.078 474.051C39.7169 474.051 39.4183 473.763 39.402 473.394C39.3884 473.016 39.6789 472.698 40.0536 472.687L44.3597 472.523C44.7344 472.503 45.0494 472.799 45.0629 473.177C45.0765 473.555 44.7833 473.873 44.4113 473.887L40.1052 474.051C40.097 474.051 40.0862 474.051 40.078 474.051Z" fill="#222831"/>
</g>
<defs>
<filter id="filter0_d_18_313" x="0" y="0" width="571" height="576" filterUnits="userSpaceOnUse" color-interpolation-filters="sRGB">
<feFlood flood-opacity="0" result="BackgroundImageFix"/>
<feColorMatrix in="SourceAlpha" type="matrix" values="0 0 0 0 0 0 0 0 0 0 0 0 0 0 0 0 0 0 127 0" result="hardAlpha"/>
<feOffset dy="4"/>
<feGaussianBlur stdDeviation="2"/>
<feComposite in2="hardAlpha" operator="out"/>
<feColorMatrix type="matrix" values="0 0 0 0 0 0 0 0 0 0 0 0 0 0 0 0 0 0 0.25 0"/>
<feBlend mode="normal" in2="BackgroundImageFix" result="effect1_dropShadow_18_313"/>
<feBlend mode="normal" in="SourceGraphic" in2="effect1_dropShadow_18_313" result="shape"/>
</filter>
</defs>
</svg>
