<svg width="200" height="200" viewBox="0 0 200 200" fill="none" xmlns="http://www.w3.org/2000/svg">
<mask id="mask0_18_589" style="mask-type:luminance" maskUnits="userSpaceOnUse" x="5" y="17" width="166" height="166">
<path d="M5.97029 17.555H170.864V182.37H5.97029V17.555Z" fill="white"/>
</mask>
<g mask="url(#mask0_18_589)">
<path d="M170.814 99.9614C170.814 145.454 133.916 182.33 88.3951 182.33C42.8762 182.33 5.97511 145.454 5.97511 99.9614C5.97511 54.4695 42.8762 17.5936 88.3951 17.5936C133.916 17.5936 170.814 54.4695 170.814 99.9614Z" fill="white"/>
<path d="M88.3951 17.5936C42.8762 17.5936 5.97511 54.4695 5.97511 99.9614C5.97511 145.454 42.8762 182.33 88.3951 182.33C133.916 182.33 170.814 145.454 170.814 99.9614C170.814 54.4695 133.916 17.5936 88.3951 17.5936ZM88.3951 34.0683C124.754 34.0683 154.33 63.6294 154.33 99.9614C154.33 136.293 124.754 165.856 88.3951 165.856C52.039 165.856 22.4576 136.293 22.4576 99.9614C22.4576 63.6294 52.039 34.0683 88.3951 34.0683Z" fill="#393E46"/>
</g>
<path d="M88.3941 50.5411C61.0851 50.5411 38.9429 72.6688 38.9429 99.9624C38.9429 127.256 61.0851 149.383 88.3941 149.383C115.707 149.383 137.845 127.256 137.845 99.9624C137.845 72.6688 115.707 50.5411 88.3941 50.5411ZM88.3941 67.0148C106.57 67.0148 121.362 81.7949 121.362 99.9624C121.362 118.128 106.57 132.909 88.3941 132.909C70.218 132.909 55.4263 118.128 55.4263 99.9624C55.4263 81.7949 70.218 67.0148 88.3941 67.0148Z" fill="#393E46"/>
<path d="M104.878 99.9624C104.878 109.059 97.4991 116.436 88.3941 116.436C79.2911 116.436 71.9107 109.059 71.9107 99.9624C71.9107 90.8671 79.2911 83.4886 88.3941 83.4886C97.4991 83.4886 104.878 90.8671 104.878 99.9624Z" fill="#393E46"/>
<path d="M180.073 47.8279C185.715 57.5897 211.162 53.4607 188.829 66.3465C166.493 79.2352 143.82 81.766 138.177 72.0004C132.541 62.2386 146.07 43.8764 168.399 30.9905C190.735 18.1038 174.432 38.0642 180.073 47.8279Z" fill="#00ADB5"/>
<path d="M88.3979 104.017C87.2569 104.017 86.1526 103.427 85.5391 102.372C84.6277 100.794 85.1688 98.7789 86.7467 97.8694L180.956 43.5127C182.528 42.5993 184.545 43.1414 185.459 44.7203C186.372 46.2953 185.83 48.3082 184.252 49.2207L90.0444 103.579C89.5245 103.875 88.9583 104.017 88.3979 104.017Z" fill="#50616C"/>
</svg>
