<svg width="200" height="200" viewBox="0 0 200 200" fill="none" xmlns="http://www.w3.org/2000/svg">
<path d="M101.36 108.657C101.353 102.557 98.7134 97.9186 91.8528 95.6269C89.2062 93.968 86.5982 93.1173 84.022 92.935C84.157 92.1721 84.2313 91.3889 84.2313 90.5864C84.2313 83.1867 78.2321 77.1885 70.8324 77.1885C63.4317 77.1885 57.4335 83.1867 57.4335 90.5864C57.4335 96.196 60.8816 100.997 65.7726 102.994C64.2554 105.538 63.3816 108.51 63.3816 111.687C63.3816 121.077 70.9944 128.69 80.3858 128.69C89.7772 128.69 97.3901 121.077 97.3901 111.687C97.3901 110.91 97.3331 110.146 97.2319 109.395L101.36 108.657Z" fill="#393E46"/>
<path d="M56.9435 136.155C54.8447 134.792 52.4007 134.394 50.1254 134.843V134.839L22.5328 137.567L19.7155 113.647C19.5997 112.663 19.6981 111.665 20.0039 110.722L21.2876 106.761C21.8933 104.894 21.9126 102.886 21.3455 101.007L19.9807 96.4892L17.6987 87.2357C17.5714 86.7168 16.9136 86.5538 16.5577 86.9531L16.3349 87.2029C16.0291 87.5463 15.8449 87.9803 15.8111 88.4384L15.3839 94.2274C15.2681 94.2313 15.1485 94.2071 15.0357 94.1512L11.4275 92.3514C11.0494 92.1634 10.7407 91.8586 10.5488 91.4815L6.00115 82.5839C5.88156 82.3485 5.5324 82.3958 5.47839 82.6543L5.16107 84.1888C5.1167 84.4039 4.8206 84.428 4.74151 84.2245L4.14255 82.6765C3.97087 82.2318 3.37288 82.1576 3.09703 82.5463L2.4672 83.4346C0.533369 86.1632 -0.00193197 89.6441 1.02334 92.8279L4.42322 103.391C4.87172 104.783 5.75328 105.993 6.93962 106.847L10.1968 109.19C10.8709 109.675 11.2423 110.478 11.1738 111.306L8.65065 141.941L8.72974 141.973C7.66975 145.278 8.88696 149.009 11.9367 150.991C13.2494 151.843 14.7203 152.249 16.1767 152.258V152.26L51.0147 153.1V153.096C54.3345 153.416 57.7141 151.928 59.6566 148.938C62.4373 144.659 61.223 138.936 56.9435 136.155Z" fill="#FCDDE3"/>
<path d="M146.72 120.96C146.72 118.54 145.639 116.369 143.933 114.917L127.942 89.7213C127.495 89.0191 127.449 88.1375 127.82 87.3939L129.62 83.8069C130.27 82.501 130.49 81.0156 130.24 79.5756L128.343 68.641C127.768 65.3501 125.678 62.5174 122.695 60.9973L121.726 60.5035C121.302 60.2884 120.808 60.6308 120.86 61.1073L121.052 62.7556C121.075 62.9707 120.802 63.0864 120.664 62.9176L119.671 61.7052C119.502 61.5017 119.171 61.6233 119.171 61.8846L119.282 71.8798C119.288 72.3032 119.154 72.7151 118.91 73.0575L116.548 76.3252C116.473 76.4304 116.38 76.5056 116.275 76.5577L113.205 71.63C112.967 71.2413 112.601 70.9394 112.171 70.7764L111.859 70.6607C111.353 70.4755 110.848 70.9221 110.976 71.4448L113.257 80.6964L114.151 85.3279C114.517 87.255 115.469 89.0249 116.873 90.4003L119.851 93.3083C120.559 93.9988 121.11 94.8409 121.464 95.7639L130.285 118.764L104.347 129.269L104.348 129.273C102.126 129.933 100.146 131.421 98.9207 133.603C96.4246 138.054 98.0083 143.685 102.459 146.182C105.569 147.927 109.253 147.674 112.044 145.848L112.046 145.852L142.503 128.919L142.502 128.917C143.787 128.232 144.902 127.189 145.666 125.825C146.374 124.563 146.691 123.191 146.668 121.841C146.699 121.551 146.72 121.258 146.72 120.96Z" fill="#FCDDE3"/>
<path d="M181.121 114.328L180.874 113.269C180.766 112.804 180.184 112.647 179.856 112.994L178.717 114.199C178.567 114.359 178.302 114.225 178.341 114.008L178.628 112.468C178.677 112.209 178.371 112.033 178.171 112.205L170.597 118.723C170.277 118.999 169.877 119.165 169.454 119.197L165.434 119.498C165.308 119.508 165.188 119.484 165.083 119.438L166.876 113.916C167.018 113.479 167.012 113.008 166.859 112.575L166.746 112.259C166.567 111.754 165.897 111.657 165.583 112.089L159.972 119.794L157 123.46C155.764 124.985 155.024 126.852 154.878 128.809L154.569 132.962C154.496 133.95 154.209 134.91 153.73 135.778L139.667 161.222L118.061 143.938L118.058 143.941C116.395 142.325 114.129 141.327 111.626 141.327C106.523 141.327 102.386 145.464 102.386 150.567C102.386 154.133 104.41 157.222 107.368 158.763L107.365 158.765L137.036 177.042V177.041C138.263 177.826 139.717 178.288 141.282 178.288C145.639 178.288 149.17 174.757 149.17 170.401C149.17 168.836 148.709 167.381 147.922 166.155H153.276L162.523 136.839C162.773 136.047 163.42 135.445 164.227 135.251L168.129 134.312C169.551 133.971 170.825 133.183 171.765 132.065L178.907 123.571C181.059 121.011 181.88 117.586 181.121 114.328Z" fill="#FCDDE3"/>
<mask id="mask0_18_501" style="mask-type:luminance" maskUnits="userSpaceOnUse" x="155" y="67" width="43" height="44">
<path d="M155.062 67.6543H197.407V110.123H155.062V67.6543Z" fill="white"/>
</mask>
<g mask="url(#mask0_18_501)">
<path d="M197.405 88.9255C197.405 100.603 187.937 110.075 176.253 110.075C164.575 110.075 155.102 100.603 155.102 88.9255C155.102 85.1408 156.1 81.5827 157.847 78.5069C161.475 72.0987 168.359 67.7748 176.253 67.7748C187.937 67.7748 197.405 77.2415 197.405 88.9255Z" fill="#393E46"/>
</g>
<path d="M175.672 66.6127V87.7633L157.267 77.3447C160.894 70.9375 167.778 66.6127 175.672 66.6127Z" fill="#00ADB5"/>
<path d="M80.6231 36.4169C80.6231 36.7709 80.6144 37.1239 80.597 37.4769C80.5797 37.8299 80.5536 38.1819 80.5189 38.534C80.4851 38.886 80.4417 39.2371 80.3897 39.5862C80.3376 39.9364 80.2768 40.2845 80.2083 40.6308C80.1389 40.978 80.0617 41.3224 79.9759 41.6657C79.89 42.0081 79.7955 42.3496 79.6933 42.6871C79.5901 43.0257 79.4801 43.3613 79.3605 43.6941C79.2419 44.0268 79.1146 44.3567 78.9786 44.6837C78.8436 45.0097 78.7008 45.3328 78.5494 45.653C78.3979 45.9722 78.2388 46.2876 78.0729 46.5992C77.9061 46.9117 77.7315 47.2193 77.5501 47.5222C77.3679 47.8251 77.1788 48.1241 76.983 48.4182C76.7863 48.7114 76.5827 49.0008 76.3725 49.2844C76.1613 49.5689 75.9442 49.8476 75.7195 50.1206C75.4958 50.3935 75.2652 50.6617 75.027 50.923C74.7897 51.1854 74.5467 51.441 74.2959 51.6918C74.0461 51.9416 73.7905 52.1846 73.5282 52.4219C73.2668 52.6601 72.9986 52.8906 72.7257 53.1154C72.4518 53.3391 72.174 53.5562 71.8895 53.7674C71.6059 53.9776 71.3165 54.1812 71.0224 54.3779C70.7292 54.5737 70.4302 54.7627 70.1273 54.945C69.8235 55.1264 69.5158 55.3009 69.2043 55.4678C68.8927 55.6337 68.5773 55.7928 68.2571 55.9443C67.9379 56.0957 67.6148 56.2384 67.2878 56.3735C66.9618 56.5095 66.6319 56.6368 66.2992 56.7554C65.9655 56.875 65.6298 56.985 65.2922 57.0882C64.9537 57.1904 64.6132 57.2849 64.2699 57.3708C63.9275 57.4566 63.5822 57.5338 63.2359 57.6032C62.8887 57.6717 62.5405 57.7325 62.1914 57.7845C61.8412 57.8366 61.4902 57.8791 61.1391 57.9138C60.787 57.9485 60.434 57.9746 60.081 57.9919C59.728 58.0093 59.375 58.018 59.021 58.018C58.668 58.018 58.314 58.0093 57.961 57.9919C57.608 57.9746 57.256 57.9485 56.9039 57.9138C56.5519 57.8791 56.2008 57.8366 55.8517 57.7845C55.5015 57.7325 55.1534 57.6717 54.8071 57.6032C54.4599 57.5338 54.1155 57.4566 53.7722 57.3708C53.4298 57.2849 53.0883 57.1904 52.7508 57.0882C52.4122 56.985 52.0766 56.875 51.7438 56.7554C51.4111 56.6368 51.0812 56.5095 50.7542 56.3735C50.4282 56.2384 50.1051 56.0957 49.7849 55.9443C49.4657 55.7928 49.1503 55.6337 48.8378 55.4678C48.5262 55.3009 48.2186 55.1264 47.9157 54.945C47.6119 54.7627 47.3138 54.5737 47.0197 54.3779C46.7255 54.1812 46.4371 53.9776 46.1526 53.7674C45.869 53.5562 45.5903 53.3391 45.3173 53.1154C45.0434 52.8906 44.7762 52.6601 44.5139 52.4219C44.2525 52.1846 43.9959 51.9416 43.7461 51.6918C43.4963 51.441 43.2523 51.1854 43.015 50.923C42.7778 50.6617 42.5473 50.3935 42.3225 50.1206C42.0978 49.8476 41.8808 49.5689 41.6705 49.2844C41.4593 49.0008 41.2558 48.7114 41.06 48.4182C40.8632 48.1241 40.6742 47.8251 40.4929 47.5222C40.3106 47.2193 40.136 46.9117 39.9701 46.5992C39.8032 46.2876 39.6441 45.9722 39.4927 45.653C39.3422 45.3328 39.1985 45.0097 39.0635 44.6837C38.9284 44.3567 38.8011 44.0268 38.6815 43.6941C38.5629 43.3613 38.452 43.0257 38.3497 42.6871C38.2465 42.3496 38.152 42.0081 38.0662 41.6657C37.9803 41.3224 37.9032 40.978 37.8337 40.6308C37.7652 40.2845 37.7045 39.9364 37.6534 39.5862C37.6013 39.2371 37.5579 38.886 37.5231 38.534C37.4884 38.1819 37.4624 37.8299 37.445 37.4769C37.4277 37.1239 37.419 36.7709 37.419 36.4169C37.419 36.0629 37.4277 35.7099 37.445 35.3569C37.4624 35.0039 37.4884 34.6518 37.5231 34.2998C37.5579 33.9477 37.6013 33.5967 37.6534 33.2475C37.7045 32.8974 37.7652 32.5492 37.8337 32.2029C37.9032 31.8557 37.9803 31.5114 38.0662 31.168C38.152 30.8256 38.2465 30.4842 38.3488 30.1466C38.452 29.8081 38.5629 29.4724 38.6815 29.1397C38.8011 28.8069 38.9284 28.4771 39.0635 28.1501C39.1985 27.8241 39.3422 27.501 39.4927 27.1808C39.6441 26.8615 39.8032 26.5461 39.9701 26.2336C40.136 25.9221 40.3106 25.6144 40.4929 25.3116C40.6742 25.0087 40.8632 24.7097 41.06 24.4155C41.2558 24.1223 41.4593 23.833 41.6705 23.5494C41.8808 23.2649 42.0978 22.9861 42.3225 22.7132C42.5473 22.4402 42.7778 22.1721 43.015 21.9107C43.2523 21.6484 43.4963 21.3928 43.7461 21.142C43.9959 20.8922 44.2525 20.6491 44.5139 20.4109C44.7762 20.1736 45.0434 19.9431 45.3173 19.7184C45.5903 19.4946 45.869 19.2766 46.1526 19.0664C46.4371 18.8561 46.7255 18.6526 47.0197 18.4558C47.3138 18.26 47.6119 18.071 47.9157 17.8887C48.2186 17.7074 48.5262 17.5328 48.8378 17.366C49.1503 17.1991 49.4657 17.0409 49.7849 16.8895C50.1051 16.7381 50.4282 16.5953 50.7542 16.4603C51.0812 16.3243 51.4111 16.197 51.7438 16.0783C52.0766 15.9587 52.4122 15.8488 52.7508 15.7456C53.0883 15.6433 53.4298 15.5488 53.7722 15.463C54.1155 15.3771 54.4599 15.3 54.8071 15.2305C55.1534 15.1621 55.5015 15.1013 55.8517 15.0492C56.2008 14.9971 56.5519 14.9547 56.9039 14.92C57.256 14.8852 57.608 14.8592 57.961 14.8418C58.314 14.8245 58.668 14.8158 59.021 14.8158C59.375 14.8158 59.728 14.8245 60.081 14.8418C60.434 14.8592 60.787 14.8852 61.1391 14.92C61.4902 14.9547 61.8412 14.9971 62.1914 15.0492C62.5405 15.1013 62.8887 15.1621 63.2359 15.2305C63.5822 15.3 63.9275 15.3771 64.2699 15.463C64.6132 15.5488 64.9537 15.6433 65.2922 15.7456C65.6298 15.8488 65.9655 15.9587 66.2992 16.0783C66.6319 16.197 66.9618 16.3243 67.2878 16.4603C67.6148 16.5953 67.9379 16.7381 68.2571 16.8895C68.5773 17.0409 68.8927 17.1991 69.2043 17.366C69.5158 17.5328 69.8235 17.7074 70.1273 17.8887C70.4302 18.071 70.7292 18.26 71.0224 18.4558C71.3165 18.6526 71.6059 18.8561 71.8895 19.0664C72.174 19.2766 72.4518 19.4946 72.7257 19.7184C72.9986 19.9431 73.2668 20.1736 73.5282 20.4109C73.7905 20.6491 74.0461 20.8922 74.2959 21.142C74.5467 21.3928 74.7897 21.6484 75.027 21.9107C75.2652 22.1721 75.4958 22.4402 75.7195 22.7132C75.9442 22.9861 76.1613 23.2649 76.3725 23.5494C76.5827 23.833 76.7863 24.1223 76.983 24.4155C77.1788 24.7097 77.3679 25.0087 77.5501 25.3116C77.7315 25.6144 77.9061 25.9221 78.0729 26.2336C78.2388 26.5461 78.3979 26.8615 78.5494 27.1808C78.7008 27.501 78.8436 27.8241 78.9786 28.1501C79.1146 28.4771 79.2419 28.8069 79.3605 29.1397C79.4801 29.4724 79.5901 29.8081 79.6933 30.1466C79.7955 30.4842 79.89 30.8256 79.9759 31.168C80.0617 31.5114 80.1389 31.8557 80.2083 32.2029C80.2768 32.5492 80.3376 32.8974 80.3897 33.2475C80.4417 33.5967 80.4851 33.9477 80.5189 34.2998C80.5536 34.6518 80.5797 35.0039 80.597 35.3569C80.6144 35.7099 80.6231 36.0629 80.6231 36.4169Z" fill="#393E46"/>
<path d="M59.021 55.1167C48.7105 55.1167 40.3212 46.7275 40.3212 36.4169C40.3212 26.1054 48.7105 17.717 59.021 17.717C69.3326 17.717 77.7209 26.1054 77.7209 36.4169C77.7209 46.7275 69.3326 55.1167 59.021 55.1167Z" fill="#00ADB5"/>
<path d="M59.9971 22.662C59.9971 22.7652 59.9778 22.8636 59.9383 22.9581C59.8987 23.0536 59.8428 23.1366 59.7704 23.2099C59.6981 23.2822 59.6142 23.3381 59.5197 23.3767C59.4251 23.4163 59.3258 23.4365 59.2236 23.4365C59.1213 23.4365 59.022 23.4163 58.9275 23.3767C58.8329 23.3381 58.749 23.2822 58.6767 23.2099C58.6034 23.1366 58.5484 23.0536 58.5089 22.9581C58.4693 22.8636 58.45 22.7652 58.45 22.662C58.45 22.5598 58.4693 22.4614 58.5089 22.3659C58.5484 22.2714 58.6034 22.1875 58.6767 22.1151C58.749 22.0428 58.8329 21.9869 58.9275 21.9473C59.022 21.9087 59.1213 21.8885 59.2236 21.8885C59.3258 21.8885 59.4251 21.9087 59.5197 21.9473C59.6142 21.9869 59.6981 22.0428 59.7704 22.1151C59.8428 22.1875 59.8987 22.2714 59.9383 22.3659C59.9778 22.4614 59.9971 22.5598 59.9971 22.662Z" fill="#393E46"/>
<path d="M53.0922 24.4039C53.0922 24.5071 53.0729 24.6055 53.0334 24.7C52.9948 24.7955 52.9388 24.8784 52.8655 24.9517C52.7932 25.0241 52.7103 25.08 52.6148 25.1186C52.5203 25.1581 52.4219 25.1774 52.3187 25.1774C52.2164 25.1774 52.1181 25.1581 52.0226 25.1186C51.928 25.08 51.8441 25.0241 51.7718 24.9517C51.6995 24.8784 51.6435 24.7955 51.604 24.7C51.5644 24.6055 51.5451 24.5071 51.5451 24.4039C51.5451 24.3017 51.5644 24.2033 51.604 24.1078C51.6435 24.0133 51.6995 23.9294 51.7718 23.857C51.8441 23.7847 51.928 23.7288 52.0226 23.6892C52.1181 23.6506 52.2164 23.6304 52.3187 23.6304C52.4219 23.6304 52.5203 23.6506 52.6148 23.6892C52.7103 23.7288 52.7932 23.7847 52.8655 23.857C52.9388 23.9294 52.9948 24.0133 53.0334 24.1078C53.0729 24.2033 53.0922 24.3017 53.0922 24.4039Z" fill="#393E46"/>
<path d="M47.9842 29.3644C47.9842 29.4667 47.9649 29.566 47.9254 29.6605C47.8858 29.755 47.8299 29.839 47.7575 29.9113C47.6852 29.9836 47.6013 30.0396 47.5068 30.0791C47.4122 30.1187 47.3129 30.1379 47.2107 30.1379C47.1075 30.1379 47.0091 30.1187 46.9145 30.0791C46.82 30.0396 46.7361 29.9836 46.6638 29.9113C46.5905 29.839 46.5345 29.755 46.496 29.6605C46.4564 29.566 46.4371 29.4667 46.4371 29.3644C46.4371 29.2622 46.4564 29.1628 46.496 29.0683C46.5345 28.9738 46.5905 28.8899 46.6638 28.8175C46.7361 28.7452 46.82 28.6893 46.9145 28.6497C47.0091 28.6102 47.1075 28.5909 47.2107 28.5909C47.3129 28.5909 47.4122 28.6102 47.5068 28.6497C47.6013 28.6893 47.6852 28.7452 47.7575 28.8175C47.8299 28.8899 47.8858 28.9738 47.9254 29.0683C47.9649 29.1628 47.9842 29.2622 47.9842 29.3644Z" fill="#393E46"/>
<path d="M46.0407 36.2143C46.0407 36.3175 46.0205 36.4159 45.9819 36.5104C45.9423 36.605 45.8864 36.6889 45.814 36.7612C45.7417 36.8345 45.6578 36.8904 45.5623 36.929C45.4678 36.9686 45.3694 36.9879 45.2672 36.9879C45.164 36.9879 45.0656 36.9686 44.9711 36.929C44.8756 36.8904 44.7926 36.8345 44.7193 36.7612C44.647 36.6889 44.5911 36.605 44.5515 36.5104C44.5129 36.4159 44.4927 36.3175 44.4927 36.2143C44.4927 36.1121 44.5129 36.0137 44.5515 35.9182C44.5911 35.8237 44.647 35.7398 44.7193 35.6675C44.7926 35.5951 44.8756 35.5392 44.9711 35.4996C45.0656 35.4611 45.164 35.4408 45.2672 35.4408C45.3694 35.4408 45.4678 35.4611 45.5623 35.4996C45.6578 35.5392 45.7417 35.5951 45.814 35.6675C45.8864 35.7398 45.9423 35.8237 45.9819 35.9182C46.0205 36.0137 46.0407 36.1121 46.0407 36.2143Z" fill="#393E46"/>
<path d="M47.7816 43.1192C47.7816 43.2215 47.7623 43.3199 47.7228 43.4153C47.6832 43.5099 47.6283 43.5938 47.555 43.6661C47.4826 43.7385 47.3987 43.7944 47.3042 43.8339C47.2097 43.8725 47.1103 43.8928 47.0081 43.8928C46.9059 43.8928 46.8065 43.8725 46.712 43.8339C46.6175 43.7944 46.5336 43.7385 46.4612 43.6661C46.3889 43.5938 46.3329 43.5099 46.2934 43.4153C46.2538 43.3199 46.2346 43.2215 46.2346 43.1192C46.2346 43.016 46.2538 42.9177 46.2934 42.8231C46.3329 42.7276 46.3889 42.6447 46.4612 42.5714C46.5336 42.4991 46.6175 42.4431 46.712 42.4045C46.8065 42.365 46.9059 42.3457 47.0081 42.3457C47.1103 42.3457 47.2097 42.365 47.3042 42.4045C47.3987 42.4431 47.4826 42.4991 47.555 42.5714C47.6283 42.6447 47.6832 42.7276 47.7228 42.8231C47.7623 42.9177 47.7816 43.016 47.7816 43.1192Z" fill="#393E46"/>
<path d="M52.7431 48.2273C52.7431 48.3295 52.7228 48.4289 52.6842 48.5234C52.6447 48.6179 52.5887 48.7018 52.5164 48.7741C52.4431 48.8465 52.3601 48.9024 52.2647 48.942C52.1701 48.9815 52.0718 49.0008 51.9686 49.0008C51.8663 49.0008 51.7679 48.9815 51.6734 48.942C51.5779 48.9024 51.494 48.8465 51.4217 48.7741C51.3493 48.7018 51.2934 48.6179 51.2539 48.5234C51.2153 48.4289 51.195 48.3295 51.195 48.2273C51.195 48.1241 51.2153 48.0257 51.2539 47.9312C51.2934 47.8366 51.3493 47.7527 51.4217 47.6804C51.494 47.6071 51.5779 47.5521 51.6734 47.5126C51.7679 47.473 51.8663 47.4537 51.9686 47.4537C52.0718 47.4537 52.1701 47.473 52.2647 47.5126C52.3601 47.5521 52.4431 47.6071 52.5164 47.6804C52.5887 47.7527 52.6447 47.8366 52.6842 47.9312C52.7228 48.0257 52.7431 48.1241 52.7431 48.2273Z" fill="#393E46"/>
<path d="M59.593 50.1707C59.593 50.2729 59.5737 50.3723 59.5341 50.4668C59.4946 50.5613 59.4387 50.6452 59.3663 50.7176C59.294 50.7899 59.2101 50.8458 59.1156 50.8854C59.021 50.9249 58.9217 50.9442 58.8194 50.9442C58.7172 50.9442 58.6179 50.9249 58.5233 50.8854C58.4288 50.8458 58.3449 50.7899 58.2726 50.7176C58.2002 50.6452 58.1443 50.5613 58.1047 50.4668C58.0652 50.3723 58.0459 50.2729 58.0459 50.1707C58.0459 50.0685 58.0652 49.9691 58.1047 49.8746C58.1443 49.7801 58.2002 49.6962 58.2726 49.6238C58.3449 49.5515 58.4288 49.4955 58.5233 49.456C58.6179 49.4164 58.7172 49.3972 58.8194 49.3972C58.9217 49.3972 59.021 49.4164 59.1156 49.456C59.2101 49.4955 59.294 49.5515 59.3663 49.6238C59.4387 49.6962 59.4946 49.7801 59.5341 49.8746C59.5737 49.9691 59.593 50.0685 59.593 50.1707Z" fill="#393E46"/>
<path d="M66.4969 48.4298C66.4969 48.532 66.4776 48.6304 66.4381 48.7259C66.3995 48.8204 66.3436 48.9043 66.2703 48.9766C66.1979 49.049 66.114 49.1049 66.0195 49.1445C65.925 49.1831 65.8266 49.2033 65.7234 49.2033C65.6211 49.2033 65.5218 49.1831 65.4273 49.1445C65.3328 49.1049 65.2488 49.049 65.1765 48.9766C65.1042 48.9043 65.0482 48.8204 65.0087 48.7259C64.9691 48.6304 64.9498 48.532 64.9498 48.4298C64.9498 48.3266 64.9691 48.2282 65.0087 48.1337C65.0482 48.0382 65.1042 47.9552 65.1765 47.8819C65.2488 47.8096 65.3328 47.7537 65.4273 47.7151C65.5218 47.6755 65.6211 47.6553 65.7234 47.6553C65.8266 47.6553 65.925 47.6755 66.0195 47.7151C66.114 47.7537 66.1979 47.8096 66.2703 47.8819C66.3436 47.9552 66.3995 48.0382 66.4381 48.1337C66.4776 48.2282 66.4969 48.3266 66.4969 48.4298Z" fill="#393E46"/>
<path d="M71.6059 43.4684C71.6059 43.5716 71.5866 43.6699 71.5471 43.7645C71.5075 43.8599 71.4516 43.9429 71.3792 44.0162C71.3069 44.0885 71.223 44.1445 71.1285 44.1831C71.034 44.2226 70.9346 44.2429 70.8324 44.2429C70.7301 44.2429 70.6308 44.2226 70.5363 44.1831C70.4417 44.1445 70.3578 44.0885 70.2855 44.0162C70.2132 43.9429 70.1572 43.8599 70.1177 43.7645C70.0781 43.6699 70.0588 43.5716 70.0588 43.4684C70.0588 43.3661 70.0781 43.2677 70.1177 43.1723C70.1572 43.0777 70.2132 42.9938 70.2855 42.9215C70.3578 42.8491 70.4417 42.7932 70.5363 42.7537C70.6308 42.7151 70.7301 42.6948 70.8324 42.6948C70.9346 42.6948 71.034 42.7151 71.1285 42.7537C71.223 42.7932 71.3069 42.8491 71.3792 42.9215C71.4516 42.9938 71.5075 43.0777 71.5471 43.1723C71.5866 43.2677 71.6059 43.3661 71.6059 43.4684Z" fill="#393E46"/>
<path d="M73.5494 36.6194C73.5494 36.7217 73.5301 36.82 73.4905 36.9155C73.452 37.01 73.396 37.094 73.3237 37.1663C73.2504 37.2386 73.1674 37.2946 73.0719 37.3341C72.9774 37.3727 72.879 37.393 72.7758 37.393C72.6736 37.393 72.5752 37.3727 72.4797 37.3341C72.3852 37.2946 72.3013 37.2386 72.229 37.1663C72.1566 37.094 72.1007 37.01 72.0611 36.9155C72.0226 36.82 72.0023 36.7217 72.0023 36.6194C72.0023 36.5162 72.0226 36.4178 72.0611 36.3233C72.1007 36.2278 72.1566 36.1449 72.229 36.0725C72.3013 35.9992 72.3852 35.9433 72.4797 35.9047C72.5752 35.8652 72.6736 35.8459 72.7758 35.8459C72.879 35.8459 72.9774 35.8652 73.0719 35.9047C73.1674 35.9433 73.2504 35.9992 73.3237 36.0725C73.396 36.1449 73.452 36.2278 73.4905 36.3233C73.5301 36.4178 73.5494 36.5162 73.5494 36.6194Z" fill="#393E46"/>
<path d="M71.8075 29.7145C71.8075 29.8177 71.7882 29.9161 71.7486 30.0106C71.7101 30.1061 71.6541 30.189 71.5808 30.2614C71.5085 30.3347 71.4255 30.3906 71.3301 30.4292C71.2355 30.4688 71.1372 30.488 71.0339 30.488C70.9317 30.488 70.8333 30.4688 70.7378 30.4292C70.6433 30.3906 70.5594 30.3347 70.4871 30.2614C70.4147 30.189 70.3588 30.1061 70.3192 30.0106C70.2797 29.9161 70.2604 29.8177 70.2604 29.7145C70.2604 29.6123 70.2797 29.5139 70.3192 29.4184C70.3588 29.3239 70.4147 29.24 70.4871 29.1676C70.5594 29.0953 70.6433 29.0394 70.7378 28.9998C70.8333 28.9612 70.9317 28.941 71.0339 28.941C71.1372 28.941 71.2355 28.9612 71.3301 28.9998C71.4255 29.0394 71.5085 29.0953 71.5808 29.1676C71.6541 29.24 71.7101 29.3239 71.7486 29.4184C71.7882 29.5139 71.8075 29.6123 71.8075 29.7145Z" fill="#393E46"/>
<path d="M66.848 24.6065C66.848 24.7087 66.8277 24.8081 66.7882 24.9026C66.7496 24.9971 66.6937 25.081 66.6213 25.1534C66.548 25.2257 66.4651 25.2816 66.3696 25.3212C66.2751 25.3607 66.1767 25.38 66.0735 25.38C65.9713 25.38 65.8729 25.3607 65.7774 25.3212C65.6829 25.2816 65.599 25.2257 65.5266 25.1534C65.4543 25.081 65.3983 24.9971 65.3588 24.9026C65.3202 24.8081 65.3 24.7087 65.3 24.6065C65.3 24.5042 65.3202 24.4049 65.3588 24.3104C65.3983 24.2159 65.4543 24.1319 65.5266 24.0596C65.599 23.9873 65.6829 23.9313 65.7774 23.8918C65.8729 23.8522 65.9713 23.8329 66.0735 23.8329C66.1767 23.8329 66.2751 23.8522 66.3696 23.8918C66.4651 23.9313 66.548 23.9873 66.6213 24.0596C66.6937 24.1319 66.7496 24.2159 66.7882 24.3104C66.8277 24.4049 66.848 24.5042 66.848 24.6065Z" fill="#393E46"/>
<path d="M65.7234 41.5605C65.6616 41.5605 65.599 41.5403 65.5459 41.4998L58.9255 36.386V26.4014C58.9255 26.2413 59.0548 26.1111 59.2159 26.1111C59.376 26.1111 59.5052 26.2413 59.5052 26.4014V36.1014L65.9008 41.0407C66.0282 41.1381 66.0513 41.3204 65.9529 41.4477C65.896 41.522 65.8102 41.5605 65.7234 41.5605Z" fill="#393E46"/>
<path d="M101.962 8.93134H131.44V50.3337H101.962V8.93134Z" fill="#393E46"/>
<mask id="mask1_18_501" style="mask-type:luminance" maskUnits="userSpaceOnUse" x="92" y="7" width="41" height="49">
<path d="M92.8395 7.25116H132.84V55.3086H92.8395V7.25116Z" fill="white"/>
</mask>
<g mask="url(#mask1_18_501)">
<path d="M92.9639 15.4361L121.286 7.26099L132.769 47.0401L104.446 55.2153L92.9639 15.4361Z" fill="#F5FAF4"/>
</g>
<path d="M100.055 20.0598L117.564 15.0058L100.055 20.0598Z" fill="#393E46"/>
<path d="M117.645 15.2845L100.135 20.3386C99.9817 20.3829 99.8206 20.2942 99.7762 20.1408C99.7319 19.9865 99.8206 19.8254 99.9749 19.7811L117.484 14.7271C117.638 14.6827 117.799 14.7714 117.843 14.9258C117.888 15.0791 117.799 15.2402 117.645 15.2845Z" fill="#393E46"/>
<path d="M100.9 23.2745L113.594 19.6104L100.9 23.2745Z" fill="#393E46"/>
<path d="M113.675 19.8891L100.981 23.5533C100.827 23.5976 100.666 23.5089 100.621 23.3555C100.577 23.2012 100.666 23.0401 100.82 22.9958L113.514 19.3316C113.668 19.2872 113.829 19.376 113.873 19.5303C113.918 19.6846 113.829 19.8447 113.675 19.8891Z" fill="#393E46"/>
<path d="M101.847 26.6339L113.259 23.3401L101.847 26.6339Z" fill="#393E46"/>
<path d="M113.34 23.6179L101.928 26.9126C101.774 26.957 101.613 26.8682 101.568 26.7139C101.524 26.5596 101.613 26.3995 101.767 26.3542L113.179 23.0604C113.333 23.016 113.493 23.1047 113.539 23.2591C113.583 23.4134 113.494 23.5735 113.34 23.6179Z" fill="#393E46"/>
<path d="M102.791 29.784L116.166 25.923L102.791 29.784Z" fill="#393E46"/>
<path d="M116.247 26.2018L102.871 30.0627C102.717 30.1071 102.556 30.0183 102.512 29.864C102.467 29.7107 102.556 29.5496 102.71 29.5052L116.086 25.6443C116.24 25.5999 116.4 25.6887 116.445 25.843C116.49 25.9963 116.401 26.1574 116.247 26.2018Z" fill="#393E46"/>
<path d="M103.798 33.0295L121.262 27.989L103.798 33.0295Z" fill="#393E46"/>
<path d="M121.342 28.2678L103.879 33.3083C103.725 33.3526 103.564 33.2639 103.519 33.1105C103.475 32.9562 103.564 32.7952 103.718 32.7508L121.181 27.7103C121.335 27.6659 121.496 27.7546 121.54 27.909C121.585 28.0623 121.496 28.2234 121.342 28.2678Z" fill="#393E46"/>
<path d="M46.522 72.2435L42.1316 85.4437C42.1065 85.5218 42.0775 85.5932 42.0428 85.6684C42.0129 85.7301 41.983 85.7919 41.9522 85.8536C41.4882 86.686 40.5575 87.1528 39.6132 87.0255C39.5447 87.0129 39.4763 87.0043 39.4097 86.9869C39.3297 86.9695 39.2544 86.9493 39.1773 86.9242L12.5299 78.0614C12.4518 78.0363 12.3804 78.0073 12.3052 77.9726C12.2425 77.9466 12.1817 77.9128 12.12 77.882C11.2866 77.419 10.8208 76.4873 10.9481 75.543C10.9606 75.4755 10.9693 75.4061 10.9867 75.3405C11.004 75.2595 11.0243 75.1842 11.0494 75.1071L15.4398 61.9068C15.4659 61.8287 15.4948 61.7573 15.5285 61.6821C15.7919 61.0947 16.2818 60.6588 16.8634 60.4495C17.2724 60.3029 17.7209 60.2652 18.1616 60.3636C18.2292 60.3771 18.2996 60.3955 18.3642 60.4167L45.0723 69.2988C45.137 69.32 45.2045 69.348 45.2662 69.3779C45.679 69.5631 46.0204 69.863 46.2548 70.2238C46.5963 70.7398 46.7274 71.3821 46.5856 72.011C46.5683 72.0911 46.548 72.1663 46.522 72.2435Z" fill="#393E46"/>
<path d="M46.2693 70.2238H46.2548L30.1649 73.4038C29.3113 73.5726 28.4317 73.2803 27.8482 72.6341L16.8634 60.4495L16.8538 60.4369C17.2618 60.2894 17.7151 60.2537 18.1616 60.3636C18.2292 60.3771 18.2996 60.3955 18.3642 60.4167L45.0723 69.2988C45.137 69.32 45.2045 69.348 45.2662 69.3779C45.6906 69.5573 46.032 69.8573 46.2693 70.2238Z" fill="#00ADB5"/>
<path d="M162.376 61.5644H152.657C151.562 61.5644 150.675 60.6771 150.675 59.5814V49.864C150.675 48.7693 151.562 47.882 152.657 47.882H162.376C163.47 47.882 164.358 48.7693 164.358 49.864V59.5814C164.358 60.6771 163.47 61.5644 162.376 61.5644Z" fill="#F5FAF4"/>
<path d="M161.661 61.8547H153.371C151.725 61.8547 150.385 60.515 150.385 58.8677V50.5777C150.385 48.9313 151.725 47.5916 153.371 47.5916H161.661C163.308 47.5916 164.648 48.9313 164.648 50.5777V58.8677C164.648 60.515 163.308 61.8547 161.661 61.8547ZM153.371 48.1722C152.045 48.1722 150.965 49.2515 150.965 50.5777V58.8677C150.965 60.1948 152.045 61.2741 153.371 61.2741H161.661C162.988 61.2741 164.067 60.1948 164.067 58.8677V50.5777C164.067 49.2515 162.988 48.1722 161.661 48.1722H153.371Z" fill="#393E46"/>
<path d="M152.84 52.0178L156.604 57.5752C164.814 50.3173 173.869 43.7047 183.674 37.6669C173.743 42.0361 156.808 54.2024 156.808 54.2024L152.84 52.0178Z" fill="#393E46"/>
<path d="M161.256 42.854H151.537C150.443 42.854 149.555 41.9666 149.555 40.8719V31.1545C149.555 30.0589 150.443 29.1715 151.537 29.1715H161.256C162.35 29.1715 163.238 30.0589 163.238 31.1545V40.8719C163.238 41.9666 162.35 42.854 161.256 42.854Z" fill="#F5FAF4"/>
<path d="M160.541 43.1443H152.251C150.605 43.1443 149.265 41.8046 149.265 40.1582V31.8682C149.265 30.2209 150.605 28.8812 152.251 28.8812H160.541C162.188 28.8812 163.528 30.2209 163.528 31.8682V40.1582C163.528 41.8046 162.188 43.1443 160.541 43.1443ZM152.251 29.4618C150.925 29.4618 149.846 30.5411 149.846 31.8682V40.1582C149.846 41.4844 150.925 42.5636 152.251 42.5636H160.541C161.868 42.5636 162.948 41.4844 162.948 40.1582V31.8682C162.948 30.5411 161.868 29.4618 160.541 29.4618H152.251Z" fill="#393E46"/>
<path d="M151.72 33.3083L155.484 38.8658C163.694 31.6069 172.749 24.9952 182.554 18.9574C172.623 23.3256 155.689 35.4919 155.689 35.4919L151.72 33.3083Z" fill="#393E46"/>
<path d="M101.091 119.387C101.091 119.543 101.075 119.698 101.045 119.852C101.015 120.006 100.969 120.155 100.909 120.301C100.849 120.446 100.775 120.584 100.688 120.714C100.601 120.844 100.502 120.964 100.391 121.075C100.28 121.186 100.159 121.286 100.029 121.372C99.8987 121.46 99.7608 121.534 99.6161 121.593C99.4705 121.653 99.322 121.698 99.1676 121.729C99.0143 121.76 98.858 121.776 98.7018 121.776C98.5446 121.776 98.3893 121.76 98.235 121.729C98.0816 121.698 97.9321 121.653 97.7874 121.593C97.6428 121.534 97.5048 121.46 97.3746 121.372C97.2434 121.286 97.1229 121.186 97.012 121.075C96.901 120.964 96.8017 120.844 96.7149 120.714C96.6281 120.584 96.5538 120.446 96.494 120.301C96.4342 120.155 96.3889 120.006 96.358 119.852C96.3272 119.698 96.3127 119.543 96.3127 119.387C96.3127 119.229 96.3272 119.074 96.358 118.92C96.3889 118.766 96.4342 118.617 96.494 118.472C96.5538 118.327 96.6281 118.19 96.7149 118.058C96.8017 117.928 96.901 117.808 97.012 117.697C97.1229 117.586 97.2434 117.486 97.3746 117.4C97.5048 117.313 97.6428 117.239 97.7874 117.179C97.9321 117.119 98.0816 117.074 98.235 117.043C98.3893 117.012 98.5446 116.997 98.7018 116.997C98.858 116.997 99.0143 117.012 99.1676 117.043C99.322 117.074 99.4705 117.119 99.6161 117.179C99.7608 117.239 99.8987 117.313 100.029 117.4C100.159 117.486 100.28 117.586 100.391 117.697C100.502 117.808 100.601 117.928 100.688 118.058C100.775 118.19 100.849 118.327 100.909 118.472C100.969 118.617 101.015 118.766 101.045 118.92C101.075 119.074 101.091 119.229 101.091 119.387Z" fill="#00ADB5"/>
<path d="M123.914 145.295L115.204 161.677C116.919 171.837 117.764 183.325 112.183 192.418H59.511C59.5583 191.795 59.7753 185.842 60.027 179.232L80.9414 168.193L88.017 168.599C89.946 168.709 91.6908 167.472 92.2203 165.615L94.4223 157.93C94.7762 156.684 94.0172 155.395 92.7537 155.105L89.3441 154.32L89.2371 153.304C89.1011 152.024 87.8038 151.206 86.5876 151.632L80.6944 153.688C79.8283 153.992 79.1194 154.64 78.7394 155.476L76.9859 159.343L75.6761 159.889L60.544 166.196C60.5565 165.888 60.5691 165.598 60.5826 165.309L59.784 165.189L41.2934 162.449L39.9151 162.244L43.4192 156.48H33.9834L35.9558 132.938L68.5494 136.147C77.2936 134.141 86.2635 133.151 95.0154 134.554L119.271 119.385L129.978 141.327L120.649 143.917L123.914 145.295Z" fill="#222831"/>
<mask id="mask2_18_501" style="mask-type:luminance" maskUnits="userSpaceOnUse" x="86" y="157" width="94" height="36">
<path d="M86.1728 157.284H180V192.807H86.1728V157.284Z" fill="white"/>
</mask>
<g mask="url(#mask2_18_501)">
<path d="M177.623 157.325H136.513C134.701 157.325 132.7 158.794 132.042 160.607L121.638 189.306H88.4288C87.2434 189.306 86.2828 190.267 86.2828 191.453V192.427C86.2828 192.629 86.4468 192.793 86.6503 192.793H164.766C166.578 192.793 168.579 191.324 169.236 189.512L179.715 160.607C180.372 158.794 179.436 157.325 177.623 157.325Z" fill="#393E46"/>
</g>
<path d="M155.022 171.399C155.106 171.499 155.182 171.605 155.252 171.716C155.32 171.828 155.382 171.944 155.436 172.066C155.49 172.187 155.536 172.313 155.575 172.444C155.612 172.574 155.643 172.708 155.666 172.847C155.688 172.985 155.702 173.127 155.708 173.272C155.714 173.416 155.712 173.564 155.701 173.713C155.692 173.864 155.673 174.015 155.646 174.169C155.62 174.322 155.585 174.476 155.543 174.632C155.501 174.788 155.45 174.943 155.393 175.099C155.335 175.256 155.269 175.411 155.197 175.566C155.123 175.721 155.043 175.876 154.957 176.029C154.869 176.182 154.775 176.333 154.675 176.481C154.574 176.631 154.467 176.777 154.354 176.92C154.241 177.065 154.122 177.205 153.998 177.342C153.873 177.479 153.743 177.612 153.609 177.741C153.474 177.87 153.335 177.995 153.192 178.114C153.048 178.235 152.9 178.35 152.75 178.459C152.598 178.569 152.444 178.672 152.288 178.77C152.131 178.868 151.97 178.96 151.809 179.045C151.647 179.131 151.484 179.21 151.32 179.282C151.155 179.355 150.99 179.42 150.824 179.479C150.658 179.538 150.492 179.589 150.326 179.633C150.16 179.677 149.996 179.714 149.832 179.742C149.668 179.772 149.505 179.794 149.345 179.807C149.184 179.822 149.026 179.828 148.871 179.826C148.714 179.825 148.562 179.816 148.413 179.799C148.264 179.783 148.118 179.759 147.977 179.727C147.836 179.695 147.699 179.656 147.567 179.609C147.434 179.563 147.308 179.509 147.187 179.448C147.064 179.388 146.948 179.319 146.838 179.245C146.728 179.17 146.625 179.089 146.528 179.001C146.43 178.913 146.341 178.818 146.257 178.718C146.173 178.619 146.097 178.513 146.027 178.402C145.959 178.29 145.897 178.173 145.843 178.052C145.789 177.93 145.743 177.805 145.704 177.674C145.666 177.543 145.636 177.409 145.613 177.27C145.591 177.133 145.577 176.991 145.571 176.846C145.565 176.701 145.567 176.554 145.578 176.404C145.587 176.254 145.606 176.102 145.633 175.949C145.659 175.796 145.693 175.641 145.736 175.486C145.778 175.33 145.829 175.175 145.886 175.018C145.944 174.862 146.01 174.707 146.083 174.552C146.155 174.396 146.236 174.242 146.323 174.089C146.41 173.936 146.504 173.785 146.605 173.636C146.705 173.487 146.812 173.341 146.925 173.197C147.038 173.053 147.158 172.913 147.282 172.776C147.406 172.639 147.536 172.506 147.671 172.377C147.805 172.247 147.944 172.123 148.087 172.003C148.231 171.883 148.379 171.768 148.529 171.659C148.681 171.549 148.835 171.446 148.992 171.347C149.149 171.25 149.308 171.157 149.47 171.073C149.632 170.987 149.795 170.908 149.96 170.835C150.123 170.763 150.289 170.697 150.455 170.639C150.621 170.58 150.787 170.529 150.953 170.484C151.119 170.441 151.284 170.404 151.448 170.375C151.612 170.345 151.774 170.324 151.935 170.31C152.095 170.296 152.253 170.289 152.408 170.291C152.565 170.292 152.717 170.301 152.867 170.318C153.015 170.335 153.161 170.359 153.302 170.391C153.443 170.422 153.58 170.462 153.712 170.508C153.845 170.555 153.972 170.609 154.093 170.669C154.215 170.73 154.331 170.799 154.441 170.873C154.551 170.948 154.654 171.029 154.751 171.117C154.849 171.205 154.939 171.299 155.022 171.399Z" fill="#F5FAF4"/>
<path d="M113.066 151.669C112.968 150.513 111.993 149.619 110.831 149.619H97.5801C96.4255 149.619 95.4495 150.496 95.3453 151.645C95.2932 152.237 95.2527 152.829 95.2295 153.421C92.1296 154.193 89.8312 156.997 89.8312 160.334C89.8312 164.269 93.0237 167.456 96.9589 167.456C97.0573 167.456 97.1624 167.456 97.2608 167.444C97.5164 168.227 97.8067 169.017 98.1144 169.8C98.4568 170.66 99.2805 171.234 100.209 171.234H108.306C109.195 171.234 109.996 170.706 110.362 169.899C112.753 164.594 113.653 158.518 113.066 151.669ZM90.9925 160.334C90.9925 157.658 92.7623 155.383 95.2006 154.629C95.1543 158.518 95.7224 162.405 96.8953 166.294C93.6333 166.26 90.9925 163.601 90.9925 160.334Z" fill="#00ADB5"/>
<path d="M94.4223 157.93L92.2203 165.615C91.6908 167.472 89.946 168.709 88.017 168.599L80.9414 168.193L60.027 179.232L43.3208 188.053C42.0235 188.991 40.4408 189.546 38.7162 189.546C34.3634 189.546 30.8304 186.017 30.8304 181.66C30.8304 180.095 31.2915 178.639 32.0804 177.414H32.0766L41.2934 162.449L59.784 165.189L58.1925 167.177L60.544 166.196L75.6761 159.889L76.9859 159.343L78.7394 155.476C79.1194 154.64 79.8283 153.992 80.6945 153.688L86.5876 151.632C87.8038 151.206 89.1011 152.025 89.2371 153.304L89.3441 154.32L92.7537 155.105C94.0172 155.395 94.7762 156.684 94.4223 157.93Z" fill="#FCDDE3"/>
<path d="M92.1692 127.539C97.0476 126.46 100.128 121.633 99.0509 116.754L95.5353 100.847C94.5997 96.6107 90.4061 93.9352 86.1699 94.8708L71.713 98.0652C70.5999 98.3112 69.8968 99.4126 70.1427 100.526L73.1144 113.978C72.7402 113.888 72.3592 113.834 71.9782 113.83C69.3007 113.802 67.6254 116.018 68.2359 118.781C68.8465 121.543 71.5114 123.806 74.1888 123.834C74.5698 123.838 74.9277 123.792 75.2652 123.71L75.4601 124.592C75.9346 126.743 77.4296 128.403 79.3229 129.184V135.123C76.8403 135.747 75.2257 136.755 75.2257 137.895C75.2257 139.791 79.6952 141.327 85.2093 141.327C90.7224 141.327 95.1919 139.791 95.1919 137.895C95.1919 136.734 93.5166 135.709 90.9539 135.088V127.807L92.1692 127.539Z" fill="#FCDDE3"/>
<path d="M77.6157 123.772C77.6157 123.928 77.6003 124.084 77.5694 124.238C77.5386 124.392 77.4933 124.541 77.4335 124.687C77.3737 124.831 77.2994 124.969 77.2126 125.099C77.1258 125.23 77.0264 125.35 76.9155 125.461C76.8046 125.572 76.684 125.671 76.5538 125.758C76.4227 125.846 76.2857 125.919 76.1401 125.979C75.9954 126.04 75.8459 126.085 75.6925 126.115C75.5382 126.146 75.3829 126.161 75.2257 126.161C75.0694 126.161 74.9142 126.146 74.7598 126.115C74.6065 126.085 74.457 126.04 74.3113 125.979C74.1667 125.919 74.0287 125.846 73.8985 125.758C73.7683 125.671 73.6478 125.572 73.5368 125.461C73.4259 125.35 73.3266 125.23 73.2398 125.099C73.152 124.969 73.0787 124.831 73.0189 124.687C72.9581 124.541 72.9128 124.392 72.8829 124.238C72.852 124.084 72.8366 123.928 72.8366 123.772C72.8366 123.615 72.852 123.46 72.8829 123.306C72.9128 123.152 72.9581 123.003 73.0189 122.858C73.0787 122.713 73.152 122.575 73.2398 122.445C73.3266 122.314 73.4259 122.193 73.5368 122.082C73.6478 121.971 73.7683 121.872 73.8985 121.785C74.0287 121.699 74.1667 121.624 74.3113 121.564C74.457 121.505 74.6065 121.459 74.7598 121.428C74.9142 121.399 75.0694 121.383 75.2257 121.383C75.3829 121.383 75.5382 121.399 75.6925 121.428C75.8459 121.459 75.9954 121.505 76.1401 121.564C76.2857 121.624 76.4227 121.699 76.5538 121.785C76.684 121.872 76.8046 121.971 76.9155 122.082C77.0264 122.193 77.1258 122.314 77.2126 122.445C77.2994 122.575 77.3737 122.713 77.4335 122.858C77.4933 123.003 77.5386 123.152 77.5694 123.306C77.6003 123.46 77.6157 123.615 77.6157 123.772Z" fill="#00ADB5"/>
<path d="M82.2078 101.835L87.6562 111.106L101.36 108.657C101.353 102.557 98.7133 97.9186 91.8528 95.627C85.5787 91.6927 79.5197 92.2888 73.5909 95.6298C70.0878 97.6042 68.1597 101.536 68.6159 105.531L69.9431 117.159C75.7099 114.933 80.1321 110.397 82.2078 101.835Z" fill="#393E46"/>
</svg>
