<svg width="200" height="200" viewBox="0 0 200 200" fill="none" xmlns="http://www.w3.org/2000/svg">
<path d="M104.251 183.124C96.2481 183.124 88.4221 181.728 80.9857 178.979C79.6798 178.495 79.0123 177.046 79.4946 175.74C79.9778 174.434 81.4284 173.77 82.7334 174.25C89.6084 176.792 96.848 178.084 104.251 178.084C138.453 178.084 166.279 150.261 166.279 116.066C166.279 81.8673 138.453 54.0451 104.251 54.0451C94.3123 54.0451 84.8187 56.3243 76.0359 60.8198C74.7984 61.4545 73.2783 60.9645 72.6437 59.7251C72.0091 58.4857 72.499 56.9676 73.7394 56.3329C83.2407 51.4699 93.5069 49.0037 104.252 49.0037C141.234 49.0037 171.321 79.0876 171.321 116.066C171.319 153.041 141.232 183.124 104.251 183.124Z" fill="#393E46"/>
<path d="M103.65 72.2888C102.257 72.2888 101.128 71.1603 101.128 69.7685V51.7631C101.128 50.3713 102.257 49.2429 103.65 49.2429C105.042 49.2429 106.17 50.3713 106.17 51.7631V69.7685C106.17 71.1593 105.042 72.2888 103.65 72.2888Z" fill="#393E46"/>
<path d="M103.65 183.124C102.257 183.124 101.128 181.996 101.128 180.604V162.598C101.128 161.207 102.257 160.078 103.65 160.078C105.042 160.078 106.17 161.207 106.17 162.598V180.604C106.17 181.996 105.042 183.124 103.65 183.124Z" fill="#393E46"/>
<path d="M148.315 164.173C147.658 164.173 146.999 163.917 146.506 163.408L133.97 150.483C133.001 149.484 133.025 147.89 134.025 146.919C135.025 145.952 136.621 145.974 137.59 146.975L150.125 159.899C151.095 160.898 151.071 162.492 150.069 163.463C149.58 163.937 148.948 164.173 148.315 164.173Z" fill="#393E46"/>
<path d="M138.21 87.2878C137.552 87.2878 136.894 87.0312 136.4 86.521C135.431 85.5218 135.455 83.9255 136.455 82.9572L149.38 70.4234C150.378 69.455 151.975 69.4782 152.945 70.4784C153.914 71.4776 153.89 73.0729 152.89 74.0422L139.964 86.576C139.475 87.0515 138.843 87.2878 138.21 87.2878Z" fill="#393E46"/>
<path d="M167.844 118.823H148.358C146.967 118.823 145.838 117.695 145.838 116.302C145.838 114.91 146.967 113.782 148.358 113.782H167.844C169.237 113.782 170.366 114.91 170.366 116.302C170.366 117.695 169.237 118.823 167.844 118.823Z" fill="#393E46"/>
<path d="M99.8351 13.3922H108.672V37.2859H99.8351V13.3922Z" fill="#393E46"/>
<path d="M108.672 39.8062H99.8341C98.4413 39.8062 97.3129 38.6786 97.3129 37.2859V13.3922C97.3129 11.9994 98.4413 10.871 99.8341 10.871H108.672C110.065 10.871 111.193 11.9994 111.193 13.3922V37.2859C111.193 38.6786 110.065 39.8062 108.672 39.8062ZM102.356 34.7656H106.153V15.9124H102.356V34.7656Z" fill="#393E46"/>
<path d="M121.884 9.10785C121.884 11.4738 118.491 13.3912 114.3 13.3912H94.2043C90.0135 13.3912 86.6233 11.4728 86.6233 9.10785C86.6233 6.74288 90.0135 4.82544 94.2043 4.82544H114.3C118.491 4.82544 121.884 6.74288 121.884 9.10785Z" fill="#393E46"/>
<mask id="mask0_18_602" style="mask-type:luminance" maskUnits="userSpaceOnUse" x="83" y="2" width="42" height="15">
<path d="M83.9506 2.31769H124.444V16.0494H83.9506V2.31769Z" fill="white"/>
</mask>
<g mask="url(#mask0_18_602)">
<path d="M114.3 15.9123H94.2043C88.4452 15.9123 84.1011 12.987 84.1011 9.10772C84.1011 5.22944 88.4452 2.30505 94.2043 2.30505H114.3C120.06 2.30505 124.404 5.22944 124.404 9.10772C124.405 12.986 120.06 15.9123 114.3 15.9123ZM94.2052 7.34653C90.9587 7.34653 89.2245 8.70359 89.1425 9.11543C89.2226 9.51281 90.9558 10.8708 94.2052 10.8708H114.301C117.549 10.8708 119.283 9.51281 119.364 9.10096C119.282 8.70455 117.545 7.34749 114.301 7.34749H94.2052V7.34653Z" fill="#393E46"/>
</g>
<path d="M172.513 38.5214L178.853 44.6798L162.204 61.8181L155.863 55.6597L172.513 38.5214Z" fill="#393E46"/>
<path d="M162.211 64.3287C161.577 64.3287 160.943 64.0924 160.453 63.6159L154.113 57.4566C153.632 56.9908 153.358 56.3542 153.348 55.6848C153.338 55.0164 153.595 54.3712 154.061 53.8928L170.713 36.7544C171.683 35.7562 173.278 35.734 174.277 36.7033L180.617 42.8607C181.098 43.3266 181.372 43.9632 181.381 44.6316C181.392 45.3 181.134 45.9443 180.668 46.4246L164.018 63.5639C163.524 64.0731 162.867 64.3287 162.211 64.3287ZM159.433 55.597L162.158 58.2436L175.295 44.7193L172.571 42.0737L159.433 55.597Z" fill="#393E46"/>
<path d="M191.323 50.8025C189.675 52.4991 185.904 51.5104 182.897 48.5899L168.485 34.5901C165.478 31.6696 164.38 27.9302 166.03 26.2346C167.678 24.538 171.448 25.5266 174.454 28.4472L188.867 42.446C191.872 45.3656 192.971 49.1059 191.323 50.8025Z" fill="#393E46"/>
<path d="M189.091 54.1522C186.533 54.1522 183.562 52.7479 181.141 50.3984L166.727 36.3966C164.966 34.6866 163.676 32.6505 163.091 30.6617C162.372 28.2099 162.783 25.9559 164.221 24.4763C165.233 23.4346 166.631 22.8829 168.26 22.8829C170.816 22.8829 173.787 24.2873 176.209 26.6368L190.622 40.6376C194.754 44.6499 195.833 49.7753 193.133 52.5579C192.118 53.6015 190.721 54.1522 189.091 54.1522ZM168.26 27.9244C167.992 27.9244 167.858 27.9765 167.831 27.9948C167.612 28.3363 167.911 30.518 170.24 32.7817L184.654 46.7824C186.31 48.3903 188.077 49.1117 189.091 49.1117C189.361 49.1117 189.496 49.0596 189.522 49.0413C189.739 48.7008 189.437 46.5162 187.107 44.2535L172.696 30.2537C171.039 28.6459 169.275 27.9244 168.26 27.9244Z" fill="#393E46"/>
<mask id="mask1_18_602" style="mask-type:luminance" maskUnits="userSpaceOnUse" x="83" y="34" width="103" height="164">
<path d="M83.9506 34.5679H185.679V197.688H83.9506V34.5679Z" fill="white"/>
</mask>
<g mask="url(#mask1_18_602)">
<path d="M104.252 197.6C98.1125 197.6 91.9937 196.914 86.061 195.56C84.7039 195.25 83.8552 193.9 84.1648 192.542C84.4744 191.186 85.8199 190.33 87.1837 190.645C92.7479 191.916 98.4896 192.56 104.252 192.56C146.371 192.56 180.638 158.298 180.638 116.182C180.638 74.0683 146.372 39.8061 104.252 39.8061C98.4906 39.8061 92.7479 40.4504 87.1817 41.7207C85.8256 42.0303 84.4734 41.1806 84.1638 39.8235C83.8542 38.4664 84.703 37.1142 86.061 36.8046C91.9946 35.4524 98.1135 34.7656 104.252 34.7656C149.15 34.7656 185.679 71.2896 185.679 116.182C185.679 161.077 149.151 197.6 104.252 197.6Z" fill="#00ADB5"/>
</g>
<path d="M104.252 118.703C103.791 118.703 103.33 118.577 102.926 118.327C102.184 117.867 101.73 117.055 101.73 116.182V80.6009C101.73 79.2081 102.859 78.0806 104.252 78.0806C105.644 78.0806 106.773 79.2081 106.773 80.6009V112.105L125.405 102.79C126.651 102.167 128.164 102.672 128.788 103.917C129.41 105.162 128.904 106.676 127.66 107.298L105.378 118.437C105.023 118.614 104.636 118.703 104.252 118.703Z" fill="#00ADB5"/>
<path d="M64.8939 67.2704H42.365C40.9732 67.2704 39.8447 66.1429 39.8447 64.7502C39.8447 63.3584 40.9732 62.2299 42.365 62.2299H64.8939C66.2857 62.2299 67.4142 63.3584 67.4142 64.7502C67.4142 66.1429 66.2857 67.2704 64.8939 67.2704Z" fill="#393E46"/>
<path d="M70.623 183.362H48.0951C46.7023 183.362 45.5739 182.234 45.5739 180.842C45.5739 179.449 46.7023 178.321 48.0951 178.321H70.623C72.0148 178.321 73.1433 179.449 73.1433 180.842C73.1433 182.234 72.0148 183.362 70.623 183.362Z" fill="#393E46"/>
<path d="M46.1439 125.851H8.05071C6.65796 125.851 5.53046 124.722 5.53046 123.329C5.53046 121.938 6.65796 120.809 8.05071 120.809H46.1439C47.5357 120.809 48.6641 121.938 48.6641 123.329C48.6641 124.722 47.5347 125.851 46.1439 125.851Z" fill="#393E46"/>
<path d="M48.9574 146.362H10.8652C9.47241 146.362 8.34393 145.233 8.34393 143.842C8.34393 142.449 9.47241 141.32 10.8652 141.32H48.9574C50.3501 141.32 51.4786 142.449 51.4786 143.842C51.4786 145.233 50.3491 146.362 48.9574 146.362Z" fill="#393E46"/>
<path d="M60.2218 166.65H22.1296C20.7369 166.65 19.6084 165.523 19.6084 164.13C19.6084 162.737 20.7369 161.61 22.1296 161.61H60.2209C61.6136 161.61 62.7421 162.737 62.7421 164.13C62.7421 165.523 61.6136 166.65 60.2218 166.65Z" fill="#393E46"/>
<path d="M53.6294 84.8573H17.7739C16.3821 84.8573 15.2537 83.7298 15.2537 82.337C15.2537 80.9443 16.3821 79.8168 17.7739 79.8168H53.6294C55.0222 79.8168 56.1507 80.9443 56.1507 82.337C56.1507 83.7298 55.0222 84.8573 53.6294 84.8573Z" fill="#393E46"/>
<mask id="mask2_18_602" style="mask-type:luminance" maskUnits="userSpaceOnUse" x="4" y="99" width="47" height="6">
<path d="M4.27179 99.5062H50.1234V104.938H4.27179V99.5062Z" fill="white"/>
</mask>
<g mask="url(#mask2_18_602)">
<path d="M47.3659 104.782H6.82676C5.43401 104.782 4.30554 103.655 4.30554 102.262C4.30554 100.869 5.43401 99.7415 6.82676 99.7415H47.3659C48.7577 99.7415 49.8862 100.869 49.8862 102.262C49.8862 103.655 48.7577 104.782 47.3659 104.782Z" fill="#393E46"/>
</g>
</svg>
